<?xml version="1.0" encoding="UTF-8" standalone="no"?>
<!-- Created with Inkscape (http://www.inkscape.org/) -->

<svg
   xmlns:dc="http://purl.org/dc/elements/1.1/"
   xmlns:cc="http://creativecommons.org/ns#"
   xmlns:rdf="http://www.w3.org/1999/02/22-rdf-syntax-ns#"
   xmlns:svg="http://www.w3.org/2000/svg"
   xmlns="http://www.w3.org/2000/svg"
   xmlns:sodipodi="http://sodipodi.sourceforge.net/DTD/sodipodi-0.dtd"
   xmlns:inkscape="http://www.inkscape.org/namespaces/inkscape"
   width="120"
   height="91.598"
   viewBox="0 0 31.749999 24.235303"
   version="1.1"
   id="svg1560"
   sodipodi:docname="new_fit_logo.svg"
   inkscape:version="0.92.5 (2060ec1f9f, 2020-04-08)">
  <defs
     id="defs1554">
    <clipPath
       clipPathUnits="userSpaceOnUse"
       id="clipPath867">
      <path
         d="M 0,189.922 H 226.771 V 0 H 0 Z"
         id="path865"
         inkscape:connector-curvature="0" />
    </clipPath>
    <clipPath
       clipPathUnits="userSpaceOnUse"
       id="clipPath1659">
      <path
         d="M 0,189.922 H 226.771 V 0 H 0 Z"
         id="path1657"
         inkscape:connector-curvature="0" />
    </clipPath>
    <linearGradient
       x1="0"
       y1="0"
       x2="1"
       y2="0"
       gradientUnits="userSpaceOnUse"
       gradientTransform="matrix(-1.3e-6,-29.5145,-29.5145,1.3e-6,113.91943,168.42383)"
       spreadMethod="pad"
       id="linearGradient1649">
      <stop
         style="stop-opacity:1;stop-color:#fff200"
         offset="0"
         id="stop1641" />
      <stop
         style="stop-opacity:1;stop-color:#fff200"
         offset="0.329861"
         id="stop1643" />
      <stop
         style="stop-opacity:1;stop-color:#624a1a"
         offset="0.784722"
         id="stop1645" />
      <stop
         style="stop-opacity:1;stop-color:#0f0602"
         offset="1"
         id="stop1647" />
    </linearGradient>
  </defs>
  <sodipodi:namedview
     id="base"
     pagecolor="#ffffff"
     bordercolor="#666666"
     borderopacity="1.0"
     inkscape:pageopacity="0.0"
     inkscape:pageshadow="2"
     inkscape:zoom="0.7"
     inkscape:cx="442.43185"
     inkscape:cy="466.67112"
     inkscape:document-units="mm"
     inkscape:current-layer="layer1"
     showgrid="false"
     inkscape:window-width="1920"
     inkscape:window-height="1027"
     inkscape:window-x="-8"
     inkscape:window-y="-8"
     inkscape:window-maximized="1"
     units="px" />
  <metadata
     id="metadata1557">
    <rdf:RDF>
      <cc:Work
         rdf:about="">
        <dc:format>image/svg+xml</dc:format>
        <dc:type
           rdf:resource="http://purl.org/dc/dcmitype/StillImage" />
        <dc:title></dc:title>
      </cc:Work>
    </rdf:RDF>
  </metadata>
  <g
     inkscape:label="Layer 1"
     inkscape:groupmode="layer"
     id="layer1"
     transform="translate(0,-272.7647)">
    <g
       transform="matrix(0.35277777,0,0,-0.35277777,-23.922097,334.30177)"
       id="g861">
      <g
         id="g863"
         clip-path="url(#clipPath867)">
        <g
           id="g873"
           transform="translate(121.376,170.4048)">
          <path
             d="m 0,0 h -3.301 -17.243 -3.457 -5.397 v 0.002 h -9.579 V 0 H -49.99 l 1.891,-3.584 c 1.181,-2.238 2.337,-4.432 3.505,-6.681 l 0.707,-1.324 1.598,0.006 c 2.094,-4.199 4.182,-8.505 6.187,-12.675 l -1.367,-0.128 1.575,-3.185 c 0.634,-1.284 1.269,-2.567 1.904,-3.844 l 0.521,-1.047 -0.023,-4.94 c 0.637,0.146 1.274,0.286 1.909,0.421 -0.029,-5.722 -0.065,-11.394 -0.109,-17.339 -0.642,-0.361 -1.285,-0.739 -1.912,-1.121 -0.006,-0.861 -0.013,-1.997 -0.019,-3.181 -0.009,-1.572 -0.018,-3.229 -0.028,-4.439 v -0.002 l 0.002,0.002 c 0.078,0.083 0.156,0.163 0.234,0.245 3.044,3.738 6.883,6.802 11.262,8.933 0.011,1.297 0.021,2.583 0.029,3.858 -1.049,-0.352 -2.108,-0.746 -3.149,-1.174 l 0.034,4.64 c 1.954,0.62 3.928,1.141 5.868,1.548 l 0.007,1.059 c 0.007,1.098 0.014,2.191 0.019,3.281 -1.947,-0.306 -3.92,-0.695 -5.861,-1.156 l 0.004,0.694 c 0.012,1.799 0.022,3.572 0.031,5.323 1.544,0.238 3.11,0.447 4.655,0.622 l -0.015,-2.896 c 1.808,0.255 3.645,0.459 5.463,0.608 v 0.05 c 0.011,2.029 0.022,4.055 0.03,6.083 l 0.588,0.021 c 0.214,0.008 0.431,0.011 0.646,0.018 -0.005,-1.11 -0.01,-2.219 -0.015,-3.328 0.648,0.035 1.296,0.064 1.944,0.089 -0.023,-4.443 -0.047,-8.867 -0.075,-13.29 -0.63,-0.061 -1.285,-0.139 -1.949,-0.233 l -0.021,-3.08 c 2.037,0.391 4.14,0.598 6.291,0.598 1.352,0 2.685,-0.083 3.994,-0.24 l 0.011,2.956 c -0.631,0.061 -1.276,0.109 -1.918,0.141 0.021,4.385 0.041,8.781 0.058,13.203 0.638,-0.013 1.277,-0.031 1.916,-0.052 l 0.011,3.293 c 0.412,-0.009 0.825,-0.017 1.235,-0.028 l -0.023,-6.061 c 1.514,-0.089 3.042,-0.216 4.543,-0.378 l 0.008,2.822 c 0.87,-0.075 1.764,-0.162 2.656,-0.258 -0.013,-4.679 -0.025,-9.431 -0.035,-14.31 -0.836,0.241 -1.689,0.463 -2.538,0.659 -0.003,-1.077 -0.005,-2.164 -0.008,-3.25 4.275,-1.334 8.177,-3.509 11.517,-6.328 l 0.003,5.406 c -0.849,0.419 -1.712,0.82 -2.567,1.191 0.005,5.528 0.015,10.747 0.025,15.761 0.89,-0.146 1.762,-0.298 2.594,-0.452 l -0.004,-3.229 c 1.527,-0.357 3.054,-0.751 4.543,-1.169 0.003,2.756 0.006,5.407 0.009,7.976 l 1.461,3.112 c 2.834,6.037 5.756,12.263 8.631,18.148 l 1.763,-0.01 0.58,1.637 c 0.805,2.27 1.608,4.504 2.412,6.737 L 34.426,0 Z"
             style="fill:#100f0d;fill-opacity:1;fill-rule:nonzero;stroke:none"
             id="path875"
             inkscape:connector-curvature="0" />
        </g>
      </g>
    </g>
    <g
       transform="matrix(0.35277777,0,0,-0.35277777,-23.922097,334.30177)"
       id="g1629">
      <g
         id="g1631">
        <g
           id="g1637">
          <g
             id="g1639">
            <path
               d="m 143.579,168.159 c -0.579,-2.235 -1.158,-4.465 -1.738,-6.712 v 0 c 0.519,-0.002 1.04,-0.005 1.559,-0.007 v 0 c -0.912,-2.226 -1.824,-4.467 -2.737,-6.73 v 0 c -0.183,-0.434 -0.402,-0.99 -0.651,-1.665 v 0 c -0.246,-0.662 -0.494,-1.341 -0.744,-2.032 v 0 c -0.246,-0.68 -0.474,-1.329 -0.686,-1.951 v 0 c -0.208,-0.612 -0.368,-1.112 -0.479,-1.503 v 0 c -0.039,0.002 -0.079,0.004 -0.118,0.008 v 0 c 0.075,0.438 0.158,0.942 0.249,1.511 v 0 c 0.092,0.578 0.186,1.187 0.285,1.83 v 0 c 0.1,0.655 0.198,1.332 0.29,2.031 v 0 c 0.096,0.713 0.171,1.398 0.223,2.051 v 0 c 0.423,4.464 0.843,8.804 1.261,13.169 v 0 h -6.388 c -0.986,-3.66 -1.977,-7.295 -2.968,-10.935 v 0 c -0.273,-1.003 -0.543,-2.02 -0.814,-3.049 v 0 c -0.261,-1 -0.501,-1.923 -0.722,-2.774 v 0 c -0.214,-0.832 -0.397,-1.55 -0.55,-2.165 v 0 c -0.15,-0.605 -0.244,-1.011 -0.284,-1.23 v 0 c -0.041,0.002 -0.079,0.003 -0.119,0.004 v 0 c -0.005,0.243 -0.003,0.648 0.006,1.221 v 0 c 0.007,0.583 0.014,1.222 0.016,1.92 v 0 c 0.001,0.712 -0.001,1.433 -0.009,2.161 v 0 c -0.007,0.744 -0.022,1.357 -0.043,1.834 v 0 c -0.031,2.115 -0.063,4.226 -0.095,6.34 v 0 c 0.548,-0.002 1.096,-0.002 1.642,-0.004 v 0 c 0.251,2.22 0.498,4.443 0.745,6.677 v 0 h -10.136 c 0.015,-2.234 0.03,-4.454 0.041,-6.662 v 0 c 0.529,-0.001 1.059,-0.001 1.588,-0.002 v 0 c 0.834,-6.67 1.66,-13.234 2.486,-19.961 v 0 c 1.637,-0.095 3.276,-0.212 4.915,-0.348 v 0 c 0.826,2.374 1.652,4.763 2.476,7.153 v 0 c 0.088,0.246 0.191,0.551 0.309,0.915 v 0 c 0.117,0.369 0.239,0.76 0.366,1.173 v 0 c 0.128,0.417 0.247,0.828 0.358,1.231 v 0 c 0.11,0.408 0.208,0.751 0.289,1.028 v 0 c 0.035,0 0.068,-0.001 0.102,-0.003 v 0 c -0.02,-0.303 -0.039,-0.655 -0.058,-1.052 v 0 c -0.02,-0.394 -0.042,-0.796 -0.064,-1.206 v 0 c -0.024,-0.407 -0.038,-0.802 -0.043,-1.189 v 0 c -0.003,-0.383 -0.008,-0.723 -0.015,-1.019 v 0 c -0.012,-2.418 -0.022,-4.872 -0.035,-7.376 v 0 c 1.675,-0.173 3.35,-0.368 5.024,-0.585 v 0 c 3.364,7.167 6.724,14.352 10.074,21.163 v 0 c 0.519,-0.003 1.039,-0.006 1.56,-0.009 v 0 c 0.806,2.275 1.61,4.513 2.417,6.749 v 0 z m -43.071,0 c 0.54,-2.266 1.08,-4.519 1.618,-6.764 v 0 c 0.595,10e-4 1.189,0.003 1.784,0.004 v 0 c 1.173,-5.398 2.34,-10.742 3.501,-16.017 v 0 c -0.474,-0.01 -0.946,-0.022 -1.419,-0.036 v 0 c 0.294,-1.211 0.588,-2.419 0.881,-3.623 v 0 c 4.254,0.157 8.511,0.168 12.768,0.036 v 0 c -0.048,2.154 -0.096,4.309 -0.145,6.47 v 0 c -1.357,0.019 -2.715,0.031 -4.072,0.036 v 0 c 0.081,-0.94 0.162,-1.879 0.242,-2.817 v 0 c -1.2,0.008 -2.4,0.009 -3.599,0.001 v 0 c -0.246,1.699 -0.493,3.405 -0.741,5.116 v 0 c 1.544,0.008 3.088,0.009 4.632,0.003 v 0 c -0.122,1.626 -0.244,3.256 -0.367,4.893 v 0 c -1.656,10e-4 -3.312,10e-4 -4.969,-0.003 v 0 c -0.284,1.972 -0.569,3.954 -0.853,5.947 v 0 c 1.507,0.001 3.017,0.001 4.526,0.001 v 0 c 0.114,-1.32 0.227,-2.636 0.34,-3.947 v 0 c 1.55,0 3.099,-0.002 4.65,-0.007 v 0 c -0.082,3.539 -0.168,7.105 -0.255,10.707 v 0 z m -10.78,0 c 0.807,-2.219 1.611,-4.43 2.415,-6.645 v 0 c 0.652,0.002 1.304,0.004 1.955,0.005 v 0 c 1.117,-3.295 2.233,-6.593 3.345,-9.885 v 0 c -4.375,5.448 -8.76,11.009 -13.151,16.525 v 0 h -8.815 c 1.171,-2.221 2.342,-4.444 3.511,-6.695 v 0 c 0.549,0.002 1.097,0.005 1.644,0.007 v 0 c 2.81,-5.6 5.612,-11.41 8.402,-17.235 v 0 c -0.442,-0.04 -0.882,-0.08 -1.324,-0.122 v 0 c 0.634,-1.282 1.269,-2.563 1.902,-3.838 v 0 c 2.165,0.282 4.328,0.528 6.493,0.734 v 0 c -0.502,1.218 -1.005,2.441 -1.507,3.667 v 0 c -0.577,-0.04 -1.152,-0.082 -1.729,-0.125 v 0 c -1.26,2.913 -2.522,5.837 -3.786,8.742 v 0 c 3.6,-4.097 7.195,-8.13 10.786,-11.963 v 0 c 1.517,0.113 3.033,0.208 4.55,0.284 v 0 c -1.861,6.547 -3.731,13.216 -5.615,19.916 v 0 c 0.624,0.001 1.248,0.002 1.872,0.004 v 0 c -0.567,2.199 -1.134,4.405 -1.703,6.624 v 0 z"
               style="fill:url(#linearGradient1649);stroke:none"
               id="path1651"
               inkscape:connector-curvature="0" />
          </g>
        </g>
      </g>
    </g>
    <g
       transform="matrix(0.35277777,0,0,-0.35277777,-23.922097,334.30177)"
       id="g1653">
      <g
         id="g1655"
         clip-path="url(#clipPath1659)">
        <g
           id="g1661"
           transform="translate(100.001,141.668)">
          <path
             d="m 0,0 c -3.884,4.15 -7.74,8.504 -10.674,11.842 l -1.43,1.729 0.887,-2.074 c 0.997,-2.29 1.992,-4.593 2.987,-6.893 l 0.892,-2.062 0.231,0.018 c 0.498,0.037 0.995,0.073 1.492,0.108 0.416,-1.017 0.833,-2.032 1.25,-3.043 -1.939,-0.19 -3.899,-0.413 -5.835,-0.664 -0.529,1.065 -1.059,2.135 -1.588,3.205 0.283,0.026 1.318,0.12 1.318,0.12 l -0.203,0.423 c -2.673,5.582 -5.541,11.533 -8.404,17.24 l -0.091,0.181 -1.646,-0.007 c -1.043,2.007 -2.097,4.008 -3.17,6.043 h 8.118 c 1.474,-1.853 2.948,-3.709 4.42,-5.564 2.832,-3.57 5.759,-7.26 8.634,-10.84 l 1.215,-1.598 -0.652,1.906 c -1.112,3.293 -2.228,6.591 -3.345,9.887 l -0.075,0.222 -1.962,-0.006 -2.177,5.993 h 8.528 c 0.511,-2 1.023,-3.99 1.535,-5.974 l -1.881,-0.004 0.93,-3.309 C 0.844,11.397 2.436,5.734 3.993,0.252 2.677,0.184 1.337,0.099 0,0 M 4.732,0.037 C 3.147,5.608 1.526,11.379 -0.042,16.961 l -0.725,2.578 1.862,0.003 -0.105,0.407 c -0.566,2.198 -1.134,4.405 -1.702,6.623 l -0.063,0.245 h -9.962 l 2.65,-7.296 1.951,0.005 c 0.895,-2.639 1.788,-5.28 2.679,-7.918 -2.488,3.109 -5.004,6.28 -7.443,9.354 l -0.036,0.044 c -1.505,1.897 -3.011,3.796 -4.518,5.688 l -0.097,0.123 h -9.513 l 0.252,-0.478 c 1.191,-2.257 2.355,-4.467 3.51,-6.693 l 0.007,-0.013 0.126,-0.164 1.6,0.008 c 2.778,-5.543 5.535,-11.26 8.106,-16.627 -0.433,-0.039 -1.329,-0.123 -1.329,-0.123 l 0.209,-0.425 c 0.635,-1.282 1.269,-2.564 1.903,-3.839 l 0.103,-0.208 0.231,0.03 c 2.147,0.281 4.327,0.528 6.481,0.733 l 0.438,0.042 -0.168,0.407 C -4.097,0.685 -4.6,1.907 -5.102,3.133 L -5.191,3.351 -5.426,3.334 C -5.925,3.3 -6.425,3.264 -6.924,3.227 l -0.708,1.636 c -0.72,1.665 -1.44,3.331 -2.162,4.993 2.492,-2.824 5.951,-6.708 9.425,-10.415 l 0.107,-0.114 0.155,0.012 c 1.522,0.114 3.05,0.209 4.542,0.284 l 0.409,0.02 z"
             style="fill:#fff200;fill-opacity:1;fill-rule:nonzero;stroke:none"
             id="path1663"
             inkscape:connector-curvature="0" />
        </g>
        <g
           id="g1665"
           transform="translate(113.7773,142.1768)">
          <path
             d="m 0,0 c -2.208,0 -4.444,-0.04 -6.65,-0.118 -0.241,0.989 -0.482,1.98 -0.723,2.973 0.337,0.01 1.409,0.035 1.409,0.035 l -0.085,0.386 c -1.13,5.142 -2.308,10.53 -3.499,16.016 l -0.056,0.257 -1.791,-0.003 -0.097,0.403 c -0.454,1.896 -0.909,3.797 -1.365,5.708 H 4.935 C 5.017,22.276 5.097,18.928 5.174,15.604 3.835,15.606 2.495,15.608 1.156,15.608 l -0.339,3.948 -5.202,-0.002 0.947,-6.599 0.283,10e-4 c 1.086,0.002 2.172,0.003 3.258,0.003 L 1.511,12.958 1.829,8.719 C 1.245,8.72 0.661,8.721 0.077,8.721 c -0.843,0 -1.686,-0.002 -2.529,-0.006 l -0.375,-10e-4 0.835,-5.769 0.284,0.002 c 0.572,0.004 1.145,0.005 1.718,0.005 0.626,0 1.251,-0.002 1.877,-0.006 L 2.244,2.944 2.002,5.762 C 3.124,5.756 4.265,5.746 5.4,5.731 L 5.53,-0.081 C 3.691,-0.027 1.833,0 0,0 M 6.038,6.375 5.724,6.379 C 4.35,6.397 2.978,6.41 1.648,6.415 L 1.291,6.416 1.533,3.6 C 1.025,3.603 0.518,3.604 0.01,3.604 -0.47,3.604 -0.949,3.603 -1.428,3.6 l -0.646,4.465 c 0.717,0.003 1.433,0.004 2.15,0.004 0.701,0 1.403,-0.001 2.104,-0.003 L 2.531,8.064 2.115,13.61 0.104,13.611 c -0.993,0 -1.985,-0.001 -2.978,-0.003 -0.099,0.689 -0.538,3.747 -0.759,5.295 1.283,0.001 2.568,0.001 3.852,0.001 l 0.339,-3.947 h 0.299 c 1.549,0 3.1,-0.002 4.649,-0.006 L 5.841,14.95 5.833,15.284 C 5.751,18.823 5.666,22.389 5.578,25.99 L 5.57,26.309 h -19.252 l 0.096,-0.402 c 0.485,-2.04 0.972,-4.07 1.46,-6.107 l 0.217,-0.907 1.779,0.003 C -8.986,13.637 -7.857,8.468 -6.771,3.523 -7.112,3.515 -8.197,3.485 -8.197,3.485 l 1.04,-4.274 0.265,0.01 c 2.282,0.085 4.601,0.128 6.892,0.128 1.941,0 3.911,-0.032 5.853,-0.092 l 0.344,-0.011 z"
             style="fill:#fff200;fill-opacity:1;fill-rule:nonzero;stroke:none"
             id="path1667"
             inkscape:connector-curvature="0" />
        </g>
        <g
           id="g1669"
           transform="translate(149.7168,161.7383)">
          <path
             d="m 0,0 -1.532,0.008 -0.09,-0.183 C -4.724,-6.48 -7.888,-13.221 -10.947,-19.74 l -0.651,-1.388 c -1.508,0.193 -3.02,0.369 -4.502,0.524 l 0.034,7.082 c 0.005,0.292 0.01,0.632 0.015,1.016 0.004,0.372 0.018,0.767 0.041,1.174 0.024,0.412 0.044,0.814 0.065,1.209 0.018,0.396 0.038,0.746 0.057,1.049 l 0.021,0.337 -0.443,0.011 -0.248,0.004 -0.069,-0.238 c -0.082,-0.279 -0.18,-0.623 -0.292,-1.033 -0.11,-0.406 -0.229,-0.818 -0.354,-1.222 -0.127,-0.412 -0.248,-0.802 -0.367,-1.169 -0.114,-0.36 -0.215,-0.661 -0.303,-0.904 -0.798,-2.314 -1.597,-4.623 -2.395,-6.919 -1.465,0.121 -2.941,0.226 -4.4,0.312 -0.682,5.545 -1.375,11.085 -2.046,16.447 l -0.443,3.531 -1.55,0.001 c -0.011,1.994 -0.024,3.997 -0.037,6.011 h 9.443 C -19.594,4.08 -19.817,2.074 -20.042,0.071 l -1.683,0.003 0.006,-0.331 c 0.032,-2.114 0.064,-4.224 0.094,-6.339 0.022,-0.502 0.036,-1.115 0.043,-1.832 0.008,-0.728 0.011,-1.447 0.009,-2.157 -0.002,-0.698 -0.008,-1.336 -0.016,-1.918 -0.009,-0.588 -0.011,-0.991 -0.006,-1.23 l 0.007,-0.304 0.426,-0.021 0.279,-0.009 0.052,0.275 c 0.04,0.209 0.135,0.617 0.282,1.212 0.153,0.613 0.335,1.331 0.549,2.162 0.221,0.85 0.461,1.774 0.722,2.773 0.269,1.028 0.54,2.043 0.813,3.045 0.97,3.561 1.938,7.117 2.902,10.695 h 5.78 L -10.184,1.92 c -0.273,-2.854 -0.548,-5.719 -0.825,-8.637 -0.054,-0.661 -0.128,-1.345 -0.221,-2.038 -0.089,-0.669 -0.186,-1.35 -0.29,-2.025 -0.099,-0.643 -0.194,-1.252 -0.286,-1.829 -0.09,-0.567 -0.173,-1.07 -0.247,-1.508 l -0.06,-0.357 0.741,-0.047 0.072,0.253 c 0.109,0.383 0.264,0.87 0.474,1.487 0.21,0.617 0.44,1.272 0.683,1.945 0.25,0.691 0.498,1.368 0.744,2.03 0.238,0.642 0.456,1.199 0.645,1.652 0.886,2.195 1.807,4.459 2.738,6.733 l 0.183,0.447 -1.623,0.007 c 0.382,1.476 1.571,6.062 1.571,6.062 H 2.183 C 1.455,4.075 0.729,2.052 0,0 M -6.39,6.747 -7.08,4.084 C -7.45,2.656 -7.82,1.227 -8.194,-0.223 l -0.069,-0.392 1.461,-0.007 c -0.869,-2.123 -1.727,-4.235 -2.552,-6.279 -0.194,-0.462 -0.415,-1.027 -0.657,-1.679 -0.245,-0.663 -0.494,-1.342 -0.745,-2.034 -0.047,-0.131 -0.094,-0.261 -0.14,-0.389 0.007,0.041 0.013,0.082 0.02,0.124 0.105,0.682 0.203,1.367 0.291,2.037 0.095,0.704 0.171,1.399 0.225,2.064 0.276,2.917 0.551,5.782 0.826,8.636 l 0.469,4.889 h -6.997 l -0.065,-0.241 c -0.986,-3.659 -1.976,-7.294 -2.967,-10.934 -0.273,-1.005 -0.545,-2.022 -0.814,-3.051 -0.262,-1 -0.502,-1.925 -0.723,-2.777 -0.105,-0.41 -0.204,-0.793 -0.295,-1.15 0.002,0.263 0.004,0.536 0.004,0.819 0.002,0.713 -10e-4,1.435 -0.009,2.165 -0.006,0.726 -0.02,1.345 -0.042,1.835 -0.029,2.005 -0.058,4.005 -0.089,6.008 l 1.603,-0.003 0.032,0.29 c 0.249,2.22 0.497,4.443 0.744,6.677 l 0.039,0.362 h -10.827 l 0.002,-0.328 c 0.016,-2.233 0.03,-4.453 0.042,-6.68 l 0.036,-0.305 1.589,-0.002 0.381,-3.04 c 0.679,-5.422 1.381,-11.029 2.069,-16.636 l 0.034,-0.27 0.271,-0.015 c 1.626,-0.095 3.277,-0.212 4.906,-0.348 l 0.252,-0.021 0.083,0.239 c 0.827,2.374 1.653,4.764 2.475,7.149 0.091,0.249 0.194,0.558 0.312,0.928 0.113,0.351 0.228,0.721 0.349,1.112 -0.018,-0.356 -0.029,-0.701 -0.033,-1.028 -0.004,-0.382 -0.009,-0.72 -0.016,-1.021 l -0.035,-7.672 0.293,-0.031 c 1.645,-0.169 3.331,-0.365 5.015,-0.583 l 0.236,-0.03 0.866,1.846 c 3.025,6.444 6.151,13.105 9.217,19.343 l 1.587,-0.008 0.077,0.218 c 0.806,2.273 1.61,4.511 2.416,6.747 L 3.11,6.747 Z"
             style="fill:#fff200;fill-opacity:1;fill-rule:nonzero;stroke:none"
             id="path1671"
             inkscape:connector-curvature="0" />
        </g>
      </g>
    </g>
  </g>
</svg>
