<?xml version="1.0" encoding="UTF-8" standalone="no"?>
<!-- Created with Inkscape (http://www.inkscape.org/) -->

<svg
   xmlns:dc="http://purl.org/dc/elements/1.1/"
   xmlns:cc="http://creativecommons.org/ns#"
   xmlns:rdf="http://www.w3.org/1999/02/22-rdf-syntax-ns#"
   xmlns:svg="http://www.w3.org/2000/svg"
   xmlns="http://www.w3.org/2000/svg"
   xmlns:sodipodi="http://sodipodi.sourceforge.net/DTD/sodipodi-0.dtd"
   xmlns:inkscape="http://www.inkscape.org/namespaces/inkscape"
   version="1.1"
   id="svg815"
   xml:space="preserve"
   width="302.36133"
   height="253.22932"
   viewBox="0 0 302.36133 253.22932"
   sodipodi:docname="NEW_FIT_NASZYWKA_7x57cm.svg"
   inkscape:version="0.92.5 (2060ec1f9f, 2020-04-08)"><metadata
     id="metadata821"><rdf:RDF><cc:Work
         rdf:about=""><dc:format>image/svg+xml</dc:format><dc:type
           rdf:resource="http://purl.org/dc/dcmitype/StillImage" /><dc:title></dc:title></cc:Work></rdf:RDF></metadata><defs
     id="defs819"><clipPath
       clipPathUnits="userSpaceOnUse"
       id="clipPath831"><path
         d="M 0,189.922 H 226.771 V 0 H 0 Z"
         id="path829"
         inkscape:connector-curvature="0" /></clipPath><radialGradient
       fx="0"
       fy="0"
       cx="0"
       cy="0"
       r="1"
       gradientUnits="userSpaceOnUse"
       gradientTransform="matrix(41.03632,0,0,-41.03632,113.91602,98.882812)"
       spreadMethod="pad"
       id="radialGradient857"><stop
         style="stop-opacity:1;stop-color:#fff200"
         offset="0"
         id="stop849" /><stop
         style="stop-opacity:1;stop-color:#fff200"
         offset="0.309028"
         id="stop851" /><stop
         style="stop-opacity:1;stop-color:#624a1a"
         offset="0.875"
         id="stop853" /><stop
         style="stop-opacity:1;stop-color:#0f0602"
         offset="1"
         id="stop855" /></radialGradient><clipPath
       clipPathUnits="userSpaceOnUse"
       id="clipPath867"><path
         d="M 0,189.922 H 226.771 V 0 H 0 Z"
         id="path865"
         inkscape:connector-curvature="0" /></clipPath><linearGradient
       x1="0"
       y1="0"
       x2="1"
       y2="0"
       gradientUnits="userSpaceOnUse"
       gradientTransform="matrix(-5.8e-6,-132.77225,-132.77225,5.8e-6,113.87598,150.79834)"
       spreadMethod="pad"
       id="linearGradient929"><stop
         style="stop-opacity:1;stop-color:#fff200"
         offset="0"
         id="stop917" /><stop
         style="stop-opacity:1;stop-color:#fff200"
         offset="0.194444"
         id="stop919" /><stop
         style="stop-opacity:1;stop-color:#624a1a"
         offset="0.513889"
         id="stop921" /><stop
         style="stop-opacity:1;stop-color:#0f0602"
         offset="0.690972"
         id="stop923" /><stop
         style="stop-opacity:1;stop-color:#100f0d"
         offset="0.829861"
         id="stop925" /><stop
         style="stop-opacity:1;stop-color:#100f0d"
         offset="1"
         id="stop927" /></linearGradient><linearGradient
       x1="0"
       y1="0"
       x2="1"
       y2="0"
       gradientUnits="userSpaceOnUse"
       gradientTransform="matrix(111.71854,0,0,-111.71854,57.990723,52.657227)"
       spreadMethod="pad"
       id="linearGradient953"><stop
         style="stop-opacity:1;stop-color:#624a1a"
         offset="0"
         id="stop945" /><stop
         style="stop-opacity:1;stop-color:#fff200"
         offset="0.35"
         id="stop947" /><stop
         style="stop-opacity:1;stop-color:#fff200"
         offset="0.65"
         id="stop949" /><stop
         style="stop-opacity:1;stop-color:#674f1a"
         offset="1"
         id="stop951" /></linearGradient><linearGradient
       x1="0"
       y1="0"
       x2="1"
       y2="0"
       gradientUnits="userSpaceOnUse"
       gradientTransform="matrix(111.70565,0,0,-111.70565,58.000488,50.743164)"
       spreadMethod="pad"
       id="linearGradient977"><stop
         style="stop-opacity:1;stop-color:#624a1a"
         offset="0"
         id="stop969" /><stop
         style="stop-opacity:1;stop-color:#fff200"
         offset="0.35"
         id="stop971" /><stop
         style="stop-opacity:1;stop-color:#fff200"
         offset="0.65"
         id="stop973" /><stop
         style="stop-opacity:1;stop-color:#674f1a"
         offset="1"
         id="stop975" /></linearGradient><linearGradient
       x1="0"
       y1="0"
       x2="1"
       y2="0"
       gradientUnits="userSpaceOnUse"
       gradientTransform="matrix(111.73887,0,0,-111.73887,57.980469,49.819336)"
       spreadMethod="pad"
       id="linearGradient1001"><stop
         style="stop-opacity:1;stop-color:#624a1a"
         offset="0"
         id="stop993" /><stop
         style="stop-opacity:1;stop-color:#fff200"
         offset="0.35"
         id="stop995" /><stop
         style="stop-opacity:1;stop-color:#fff200"
         offset="0.65"
         id="stop997" /><stop
         style="stop-opacity:1;stop-color:#674f1a"
         offset="1"
         id="stop999" /></linearGradient><linearGradient
       x1="0"
       y1="0"
       x2="1"
       y2="0"
       gradientUnits="userSpaceOnUse"
       gradientTransform="matrix(111.72354,0,0,-111.72354,57.989746,49.426758)"
       spreadMethod="pad"
       id="linearGradient1025"><stop
         style="stop-opacity:1;stop-color:#624a1a"
         offset="0"
         id="stop1017" /><stop
         style="stop-opacity:1;stop-color:#fff200"
         offset="0.35"
         id="stop1019" /><stop
         style="stop-opacity:1;stop-color:#fff200"
         offset="0.65"
         id="stop1021" /><stop
         style="stop-opacity:1;stop-color:#674f1a"
         offset="1"
         id="stop1023" /></linearGradient><linearGradient
       x1="0"
       y1="0"
       x2="1"
       y2="0"
       gradientUnits="userSpaceOnUse"
       gradientTransform="matrix(111.74065,0,0,-111.74065,57.98291,49.332031)"
       spreadMethod="pad"
       id="linearGradient1049"><stop
         style="stop-opacity:1;stop-color:#624a1a"
         offset="0"
         id="stop1041" /><stop
         style="stop-opacity:1;stop-color:#fff200"
         offset="0.35"
         id="stop1043" /><stop
         style="stop-opacity:1;stop-color:#fff200"
         offset="0.65"
         id="stop1045" /><stop
         style="stop-opacity:1;stop-color:#674f1a"
         offset="1"
         id="stop1047" /></linearGradient><linearGradient
       x1="0"
       y1="0"
       x2="1"
       y2="0"
       gradientUnits="userSpaceOnUse"
       gradientTransform="matrix(111.71032,0,0,-111.71032,57.99707,49.598633)"
       spreadMethod="pad"
       id="linearGradient1073"><stop
         style="stop-opacity:1;stop-color:#624a1a"
         offset="0"
         id="stop1065" /><stop
         style="stop-opacity:1;stop-color:#fff200"
         offset="0.35"
         id="stop1067" /><stop
         style="stop-opacity:1;stop-color:#fff200"
         offset="0.65"
         id="stop1069" /><stop
         style="stop-opacity:1;stop-color:#674f1a"
         offset="1"
         id="stop1071" /></linearGradient><linearGradient
       x1="0"
       y1="0"
       x2="1"
       y2="0"
       gradientUnits="userSpaceOnUse"
       gradientTransform="matrix(111.71299,0,0,-111.71299,57.996094,50.727539)"
       spreadMethod="pad"
       id="linearGradient1097"><stop
         style="stop-opacity:1;stop-color:#624a1a"
         offset="0"
         id="stop1089" /><stop
         style="stop-opacity:1;stop-color:#fff200"
         offset="0.35"
         id="stop1091" /><stop
         style="stop-opacity:1;stop-color:#fff200"
         offset="0.65"
         id="stop1093" /><stop
         style="stop-opacity:1;stop-color:#674f1a"
         offset="1"
         id="stop1095" /></linearGradient><linearGradient
       x1="0"
       y1="0"
       x2="1"
       y2="0"
       gradientUnits="userSpaceOnUse"
       gradientTransform="matrix(111.72137,0,0,-111.72137,57.993652,52.741211)"
       spreadMethod="pad"
       id="linearGradient1121"><stop
         style="stop-opacity:1;stop-color:#624a1a"
         offset="0"
         id="stop1113" /><stop
         style="stop-opacity:1;stop-color:#fff200"
         offset="0.35"
         id="stop1115" /><stop
         style="stop-opacity:1;stop-color:#fff200"
         offset="0.65"
         id="stop1117" /><stop
         style="stop-opacity:1;stop-color:#674f1a"
         offset="1"
         id="stop1119" /></linearGradient><linearGradient
       x1="0"
       y1="0"
       x2="1"
       y2="0"
       gradientUnits="userSpaceOnUse"
       gradientTransform="matrix(111.71673,0,0,-111.71673,57.993652,65.676758)"
       spreadMethod="pad"
       id="linearGradient1145"><stop
         style="stop-opacity:1;stop-color:#624a1a"
         offset="0"
         id="stop1137" /><stop
         style="stop-opacity:1;stop-color:#fff200"
         offset="0.35"
         id="stop1139" /><stop
         style="stop-opacity:1;stop-color:#fff200"
         offset="0.65"
         id="stop1141" /><stop
         style="stop-opacity:1;stop-color:#674f1a"
         offset="1"
         id="stop1143" /></linearGradient><linearGradient
       x1="0"
       y1="0"
       x2="1"
       y2="0"
       gradientUnits="userSpaceOnUse"
       gradientTransform="matrix(111.71298,0,0,-111.71298,57.995606,63.795898)"
       spreadMethod="pad"
       id="linearGradient1169"><stop
         style="stop-opacity:1;stop-color:#624a1a"
         offset="0"
         id="stop1161" /><stop
         style="stop-opacity:1;stop-color:#fff200"
         offset="0.35"
         id="stop1163" /><stop
         style="stop-opacity:1;stop-color:#fff200"
         offset="0.65"
         id="stop1165" /><stop
         style="stop-opacity:1;stop-color:#674f1a"
         offset="1"
         id="stop1167" /></linearGradient><linearGradient
       x1="0"
       y1="0"
       x2="1"
       y2="0"
       gradientUnits="userSpaceOnUse"
       gradientTransform="matrix(111.70077,0,0,-111.70077,58.003906,62.652344)"
       spreadMethod="pad"
       id="linearGradient1193"><stop
         style="stop-opacity:1;stop-color:#624a1a"
         offset="0"
         id="stop1185" /><stop
         style="stop-opacity:1;stop-color:#fff200"
         offset="0.35"
         id="stop1187" /><stop
         style="stop-opacity:1;stop-color:#fff200"
         offset="0.65"
         id="stop1189" /><stop
         style="stop-opacity:1;stop-color:#674f1a"
         offset="1"
         id="stop1191" /></linearGradient><linearGradient
       x1="0"
       y1="0"
       x2="1"
       y2="0"
       gradientUnits="userSpaceOnUse"
       gradientTransform="matrix(111.722,0,0,-111.722,57.990723,61.481445)"
       spreadMethod="pad"
       id="linearGradient1217"><stop
         style="stop-opacity:1;stop-color:#624a1a"
         offset="0"
         id="stop1209" /><stop
         style="stop-opacity:1;stop-color:#fff200"
         offset="0.35"
         id="stop1211" /><stop
         style="stop-opacity:1;stop-color:#fff200"
         offset="0.65"
         id="stop1213" /><stop
         style="stop-opacity:1;stop-color:#674f1a"
         offset="1"
         id="stop1215" /></linearGradient><linearGradient
       x1="0"
       y1="0"
       x2="1"
       y2="0"
       gradientUnits="userSpaceOnUse"
       gradientTransform="matrix(111.75513,0,0,-111.75513,57.974609,61.344727)"
       spreadMethod="pad"
       id="linearGradient1241"><stop
         style="stop-opacity:1;stop-color:#624a1a"
         offset="0"
         id="stop1233" /><stop
         style="stop-opacity:1;stop-color:#fff200"
         offset="0.35"
         id="stop1235" /><stop
         style="stop-opacity:1;stop-color:#fff200"
         offset="0.65"
         id="stop1237" /><stop
         style="stop-opacity:1;stop-color:#674f1a"
         offset="1"
         id="stop1239" /></linearGradient><linearGradient
       x1="0"
       y1="0"
       x2="1"
       y2="0"
       gradientUnits="userSpaceOnUse"
       gradientTransform="matrix(111.71587,0,0,-111.71587,57.994141,61.616211)"
       spreadMethod="pad"
       id="linearGradient1265"><stop
         style="stop-opacity:1;stop-color:#624a1a"
         offset="0"
         id="stop1257" /><stop
         style="stop-opacity:1;stop-color:#fff200"
         offset="0.35"
         id="stop1259" /><stop
         style="stop-opacity:1;stop-color:#fff200"
         offset="0.65"
         id="stop1261" /><stop
         style="stop-opacity:1;stop-color:#674f1a"
         offset="1"
         id="stop1263" /></linearGradient><linearGradient
       x1="0"
       y1="0"
       x2="1"
       y2="0"
       gradientUnits="userSpaceOnUse"
       gradientTransform="matrix(111.7306,0,0,-111.7306,57.989258,62.027344)"
       spreadMethod="pad"
       id="linearGradient1289"><stop
         style="stop-opacity:1;stop-color:#624a1a"
         offset="0"
         id="stop1281" /><stop
         style="stop-opacity:1;stop-color:#fff200"
         offset="0.35"
         id="stop1283" /><stop
         style="stop-opacity:1;stop-color:#fff200"
         offset="0.65"
         id="stop1285" /><stop
         style="stop-opacity:1;stop-color:#674f1a"
         offset="1"
         id="stop1287" /></linearGradient><linearGradient
       x1="0"
       y1="0"
       x2="1"
       y2="0"
       gradientUnits="userSpaceOnUse"
       gradientTransform="matrix(111.71214,0,0,-111.71214,57.996582,63.18457)"
       spreadMethod="pad"
       id="linearGradient1313"><stop
         style="stop-opacity:1;stop-color:#624a1a"
         offset="0"
         id="stop1305" /><stop
         style="stop-opacity:1;stop-color:#fff200"
         offset="0.35"
         id="stop1307" /><stop
         style="stop-opacity:1;stop-color:#fff200"
         offset="0.65"
         id="stop1309" /><stop
         style="stop-opacity:1;stop-color:#674f1a"
         offset="1"
         id="stop1311" /></linearGradient><linearGradient
       x1="0"
       y1="0"
       x2="1"
       y2="0"
       gradientUnits="userSpaceOnUse"
       gradientTransform="matrix(111.71316,0,0,-111.71316,57.996094,64.795898)"
       spreadMethod="pad"
       id="linearGradient1337"><stop
         style="stop-opacity:1;stop-color:#624a1a"
         offset="0"
         id="stop1329" /><stop
         style="stop-opacity:1;stop-color:#fff200"
         offset="0.35"
         id="stop1331" /><stop
         style="stop-opacity:1;stop-color:#fff200"
         offset="0.65"
         id="stop1333" /><stop
         style="stop-opacity:1;stop-color:#674f1a"
         offset="1"
         id="stop1335" /></linearGradient><linearGradient
       x1="0"
       y1="0"
       x2="1"
       y2="0"
       gradientUnits="userSpaceOnUse"
       gradientTransform="matrix(111.70985,0,0,-111.70985,57.996582,66.553711)"
       spreadMethod="pad"
       id="linearGradient1361"><stop
         style="stop-opacity:1;stop-color:#624a1a"
         offset="0"
         id="stop1353" /><stop
         style="stop-opacity:1;stop-color:#fff200"
         offset="0.35"
         id="stop1355" /><stop
         style="stop-opacity:1;stop-color:#fff200"
         offset="0.65"
         id="stop1357" /><stop
         style="stop-opacity:1;stop-color:#674f1a"
         offset="1"
         id="stop1359" /></linearGradient><linearGradient
       x1="0"
       y1="0"
       x2="1"
       y2="0"
       gradientUnits="userSpaceOnUse"
       gradientTransform="matrix(111.70985,0,0,-111.70985,57.999023,83.148437)"
       spreadMethod="pad"
       id="linearGradient1385"><stop
         style="stop-opacity:1;stop-color:#624a1a"
         offset="0"
         id="stop1377" /><stop
         style="stop-opacity:1;stop-color:#fff200"
         offset="0.35"
         id="stop1379" /><stop
         style="stop-opacity:1;stop-color:#fff200"
         offset="0.65"
         id="stop1381" /><stop
         style="stop-opacity:1;stop-color:#674f1a"
         offset="1"
         id="stop1383" /></linearGradient><linearGradient
       x1="0"
       y1="0"
       x2="1"
       y2="0"
       gradientUnits="userSpaceOnUse"
       gradientTransform="matrix(111.70564,0,0,-111.70564,58.002441,80.262695)"
       spreadMethod="pad"
       id="linearGradient1409"><stop
         style="stop-opacity:1;stop-color:#624a1a"
         offset="0"
         id="stop1401" /><stop
         style="stop-opacity:1;stop-color:#fff200"
         offset="0.35"
         id="stop1403" /><stop
         style="stop-opacity:1;stop-color:#fff200"
         offset="0.65"
         id="stop1405" /><stop
         style="stop-opacity:1;stop-color:#674f1a"
         offset="1"
         id="stop1407" /></linearGradient><linearGradient
       x1="0"
       y1="0"
       x2="1"
       y2="0"
       gradientUnits="userSpaceOnUse"
       gradientTransform="matrix(111.72319,0,0,-111.72319,57.987305,77.854492)"
       spreadMethod="pad"
       id="linearGradient1433"><stop
         style="stop-opacity:1;stop-color:#624a1a"
         offset="0"
         id="stop1425" /><stop
         style="stop-opacity:1;stop-color:#fff200"
         offset="0.35"
         id="stop1427" /><stop
         style="stop-opacity:1;stop-color:#fff200"
         offset="0.65"
         id="stop1429" /><stop
         style="stop-opacity:1;stop-color:#674f1a"
         offset="1"
         id="stop1431" /></linearGradient><linearGradient
       x1="0"
       y1="0"
       x2="1"
       y2="0"
       gradientUnits="userSpaceOnUse"
       gradientTransform="matrix(111.71973,0,0,-111.71973,57.990723,75.895508)"
       spreadMethod="pad"
       id="linearGradient1457"><stop
         style="stop-opacity:1;stop-color:#624a1a"
         offset="0"
         id="stop1449" /><stop
         style="stop-opacity:1;stop-color:#fff200"
         offset="0.35"
         id="stop1451" /><stop
         style="stop-opacity:1;stop-color:#fff200"
         offset="0.65"
         id="stop1453" /><stop
         style="stop-opacity:1;stop-color:#674f1a"
         offset="1"
         id="stop1455" /></linearGradient><linearGradient
       x1="0"
       y1="0"
       x2="1"
       y2="0"
       gradientUnits="userSpaceOnUse"
       gradientTransform="matrix(111.70661,0,0,-111.70661,58,74.879883)"
       spreadMethod="pad"
       id="linearGradient1481"><stop
         style="stop-opacity:1;stop-color:#624a1a"
         offset="0"
         id="stop1473" /><stop
         style="stop-opacity:1;stop-color:#fff200"
         offset="0.35"
         id="stop1475" /><stop
         style="stop-opacity:1;stop-color:#fff200"
         offset="0.65"
         id="stop1477" /><stop
         style="stop-opacity:1;stop-color:#674f1a"
         offset="1"
         id="stop1479" /></linearGradient><linearGradient
       x1="0"
       y1="0"
       x2="1"
       y2="0"
       gradientUnits="userSpaceOnUse"
       gradientTransform="matrix(111.71721,0,0,-111.71721,57.993652,73.959961)"
       spreadMethod="pad"
       id="linearGradient1505"><stop
         style="stop-opacity:1;stop-color:#624a1a"
         offset="0"
         id="stop1497" /><stop
         style="stop-opacity:1;stop-color:#fff200"
         offset="0.35"
         id="stop1499" /><stop
         style="stop-opacity:1;stop-color:#fff200"
         offset="0.65"
         id="stop1501" /><stop
         style="stop-opacity:1;stop-color:#674f1a"
         offset="1"
         id="stop1503" /></linearGradient><linearGradient
       x1="0"
       y1="0"
       x2="1"
       y2="0"
       gradientUnits="userSpaceOnUse"
       gradientTransform="matrix(111.71836,0,0,-111.71836,57.993652,73.985352)"
       spreadMethod="pad"
       id="linearGradient1529"><stop
         style="stop-opacity:1;stop-color:#624a1a"
         offset="0"
         id="stop1521" /><stop
         style="stop-opacity:1;stop-color:#fff200"
         offset="0.35"
         id="stop1523" /><stop
         style="stop-opacity:1;stop-color:#fff200"
         offset="0.65"
         id="stop1525" /><stop
         style="stop-opacity:1;stop-color:#674f1a"
         offset="1"
         id="stop1527" /></linearGradient><linearGradient
       x1="0"
       y1="0"
       x2="1"
       y2="0"
       gradientUnits="userSpaceOnUse"
       gradientTransform="matrix(111.71161,0,0,-111.71161,57.996094,74.938477)"
       spreadMethod="pad"
       id="linearGradient1553"><stop
         style="stop-opacity:1;stop-color:#624a1a"
         offset="0"
         id="stop1545" /><stop
         style="stop-opacity:1;stop-color:#fff200"
         offset="0.35"
         id="stop1547" /><stop
         style="stop-opacity:1;stop-color:#fff200"
         offset="0.65"
         id="stop1549" /><stop
         style="stop-opacity:1;stop-color:#674f1a"
         offset="1"
         id="stop1551" /></linearGradient><linearGradient
       x1="0"
       y1="0"
       x2="1"
       y2="0"
       gradientUnits="userSpaceOnUse"
       gradientTransform="matrix(111.71395,0,0,-111.71395,57.993164,77.546875)"
       spreadMethod="pad"
       id="linearGradient1577"><stop
         style="stop-opacity:1;stop-color:#624a1a"
         offset="0"
         id="stop1569" /><stop
         style="stop-opacity:1;stop-color:#fff200"
         offset="0.35"
         id="stop1571" /><stop
         style="stop-opacity:1;stop-color:#fff200"
         offset="0.65"
         id="stop1573" /><stop
         style="stop-opacity:1;stop-color:#674f1a"
         offset="1"
         id="stop1575" /></linearGradient><linearGradient
       x1="0"
       y1="0"
       x2="1"
       y2="0"
       gradientUnits="userSpaceOnUse"
       gradientTransform="matrix(111.71518,0,0,-111.71518,57.995606,80.06543)"
       spreadMethod="pad"
       id="linearGradient1601"><stop
         style="stop-opacity:1;stop-color:#624a1a"
         offset="0"
         id="stop1593" /><stop
         style="stop-opacity:1;stop-color:#fff200"
         offset="0.35"
         id="stop1595" /><stop
         style="stop-opacity:1;stop-color:#fff200"
         offset="0.65"
         id="stop1597" /><stop
         style="stop-opacity:1;stop-color:#674f1a"
         offset="1"
         id="stop1599" /></linearGradient><linearGradient
       x1="0"
       y1="0"
       x2="1"
       y2="0"
       gradientUnits="userSpaceOnUse"
       gradientTransform="matrix(111.70853,0,0,-111.70853,57.996582,83.472656)"
       spreadMethod="pad"
       id="linearGradient1625"><stop
         style="stop-opacity:1;stop-color:#624a1a"
         offset="0"
         id="stop1617" /><stop
         style="stop-opacity:1;stop-color:#fff200"
         offset="0.35"
         id="stop1619" /><stop
         style="stop-opacity:1;stop-color:#fff200"
         offset="0.65"
         id="stop1621" /><stop
         style="stop-opacity:1;stop-color:#674f1a"
         offset="1"
         id="stop1623" /></linearGradient><linearGradient
       x1="0"
       y1="0"
       x2="1"
       y2="0"
       gradientUnits="userSpaceOnUse"
       gradientTransform="matrix(-1.3e-6,-29.5145,-29.5145,1.3e-6,113.91943,168.42383)"
       spreadMethod="pad"
       id="linearGradient1649"><stop
         style="stop-opacity:1;stop-color:#fff200"
         offset="0"
         id="stop1641" /><stop
         style="stop-opacity:1;stop-color:#fff200"
         offset="0.329861"
         id="stop1643" /><stop
         style="stop-opacity:1;stop-color:#624a1a"
         offset="0.784722"
         id="stop1645" /><stop
         style="stop-opacity:1;stop-color:#0f0602"
         offset="1"
         id="stop1647" /></linearGradient><clipPath
       clipPathUnits="userSpaceOnUse"
       id="clipPath1659"><path
         d="M 0,189.922 H 226.771 V 0 H 0 Z"
         id="path1657"
         inkscape:connector-curvature="0" /></clipPath></defs><sodipodi:namedview
     pagecolor="#ffffff"
     bordercolor="#666666"
     borderopacity="1"
     objecttolerance="10"
     gridtolerance="10"
     guidetolerance="10"
     inkscape:pageopacity="0"
     inkscape:pageshadow="2"
     inkscape:window-width="1920"
     inkscape:window-height="1027"
     id="namedview817"
     showgrid="false"
     inkscape:zoom="3.3882332"
     inkscape:cx="151.18066"
     inkscape:cy="150.22579"
     inkscape:window-x="1912"
     inkscape:window-y="-8"
     inkscape:window-maximized="1"
     inkscape:current-layer="g823" /><g
     id="g823"
     inkscape:groupmode="layer"
     inkscape:label="NEW_FIT_NASZYWKA_7x57cm"
     transform="matrix(1.3333333,0,0,-1.3333333,0,253.22933)"><g
       id="g825"><g
         id="g827"
         clip-path="url(#clipPath831)"><g
           id="g833"
           transform="translate(173.3047,128.9443)"><path
             d="M 0,0 0.008,5.582 -7.358,9.9 c -3.813,2.235 -7.69,4.333 -11.572,6.266 l 4.35,12.569 -1.891,0.833 0.187,0.526 c 0.786,2.219 1.554,4.353 2.404,6.714 l 3.637,10.102 h -65.982 v 0.002 h -14.681 l -5.102,-0.002 h -14.371 l 5.839,-11.069 c 0.941,-1.782 1.936,-3.669 2.946,-5.606 l -2.781,-1.226 4.421,-12.862 c -3.87,-1.927 -7.734,-4.02 -11.533,-6.247 l -7.367,-4.318 0.008,-5.592 -39.79,39.029 1.315,-13.899 c 0.044,-0.461 1.127,-11.493 6.193,-28.214 2.959,-9.764 6.678,-19.483 11.056,-28.886 5.447,-11.703 11.936,-22.95 19.287,-33.431 6.249,-10.243 12.723,-18.193 19.245,-23.63 l 0.64,-0.533 0.72,-0.28 c 0.622,-0.259 5.738,-2.357 12.709,-4.465 6.21,-6.812 13.264,-12.371 20.988,-16.535 l 7.06,-3.807 7.06,3.807 c 7.724,4.164 14.781,9.724 20.993,16.54 7.342,2.22 12.532,4.391 12.763,4.489 l 0.703,0.295 0.587,0.489 c 6.512,5.43 12.977,13.363 19.216,23.584 7.36,10.486 13.856,21.739 19.31,33.448 4.382,9.408 8.105,19.133 11.067,28.905 5.072,16.731 6.156,27.772 6.2,28.234 l 1.314,13.898 z"
             style="fill:none;stroke:#100f0d;stroke-width:1;stroke-linecap:butt;stroke-linejoin:miter;stroke-miterlimit:10;stroke-dasharray:none;stroke-opacity:1"
             id="path835"
             inkscape:connector-curvature="0" /></g></g></g><g
       id="g837"><g
         id="g839"><g
           id="g845"><g
             id="g847"><path
               d="m 107.456,116.193 -8.34,-2.587 -5.819,-4.311 -6.539,-8.549 -3.305,-10.186 -11.997,4.799 -7.272,7.734 -2.422,0.096 -3.239,-3.593 v -3.16 l 3.879,-3.448 10.861,-4.455 10.262,-3.448 15.232,-3.512 h 17.989 l 14.636,0.782 18.94,4.154 15.576,6.191 3.411,3.305 v 4.16 l -3.411,3.21 -3.631,-3.21 -12.069,-7.465 -5.987,-2.14 -0.528,3.099 -3.49,6.009 -4.939,8.55 -4.848,4.167 -5.124,2.658 -5.259,1.15 z"
               style="fill:url(#radialGradient857);stroke:none"
               id="path859"
               inkscape:connector-curvature="0" /></g></g></g></g><g
       id="g861"><g
         id="g863"
         clip-path="url(#clipPath867)"><g
           id="g869"
           transform="translate(64.1831,103.0928)"><path
             d="m 0,0 7.272,-7.734 11.999,-4.799 3.304,10.186 6.538,8.55 5.82,4.31 8.339,2.587 H 55.84 l 5.259,-1.15 5.124,-2.658 4.848,-4.167 4.939,-8.55 3.49,-6.01 0.528,-3.098 5.987,2.14 12.069,7.465 3.63,3.21 3.411,-3.21 v -4.16 l -3.411,-3.305 -15.575,-6.191 -18.94,-4.154 -14.636,-0.782 H 34.574 l -15.232,3.512 -10.262,3.448 -10.86,4.456 -3.88,3.447 v 3.16 l 3.238,3.593 z"
             style="fill:none;stroke:#fff200;stroke-width:2.26799989;stroke-linecap:butt;stroke-linejoin:miter;stroke-miterlimit:10;stroke-dasharray:none;stroke-opacity:1"
             id="path871"
             inkscape:connector-curvature="0" /></g><g
           id="g873"
           transform="translate(121.376,170.4048)"><path
             d="m 0,0 h -3.301 -17.243 -3.457 -5.397 v 0.002 h -9.579 V 0 H -49.99 l 1.891,-3.584 c 1.181,-2.238 2.337,-4.432 3.505,-6.681 l 0.707,-1.324 1.598,0.006 c 2.094,-4.199 4.182,-8.505 6.187,-12.675 l -1.367,-0.128 1.575,-3.185 c 0.634,-1.284 1.269,-2.567 1.904,-3.844 l 0.521,-1.047 -0.023,-4.94 c 0.637,0.146 1.274,0.286 1.909,0.421 -0.029,-5.722 -0.065,-11.394 -0.109,-17.339 -0.642,-0.361 -1.285,-0.739 -1.912,-1.121 -0.006,-0.861 -0.013,-1.997 -0.019,-3.181 -0.009,-1.572 -0.018,-3.229 -0.028,-4.439 v -0.002 l 0.002,0.002 c 0.078,0.083 0.156,0.163 0.234,0.245 3.044,3.738 6.883,6.802 11.262,8.933 0.011,1.297 0.021,2.583 0.029,3.858 -1.049,-0.352 -2.108,-0.746 -3.149,-1.174 l 0.034,4.64 c 1.954,0.62 3.928,1.141 5.868,1.548 l 0.007,1.059 c 0.007,1.098 0.014,2.191 0.019,3.281 -1.947,-0.306 -3.92,-0.695 -5.861,-1.156 l 0.004,0.694 c 0.012,1.799 0.022,3.572 0.031,5.323 1.544,0.238 3.11,0.447 4.655,0.622 l -0.015,-2.896 c 1.808,0.255 3.645,0.459 5.463,0.608 v 0.05 c 0.011,2.029 0.022,4.055 0.03,6.083 l 0.588,0.021 c 0.214,0.008 0.431,0.011 0.646,0.018 -0.005,-1.11 -0.01,-2.219 -0.015,-3.328 0.648,0.035 1.296,0.064 1.944,0.089 -0.023,-4.443 -0.047,-8.867 -0.075,-13.29 -0.63,-0.061 -1.285,-0.139 -1.949,-0.233 l -0.021,-3.08 c 2.037,0.391 4.14,0.598 6.291,0.598 1.352,0 2.685,-0.083 3.994,-0.24 l 0.011,2.956 c -0.631,0.061 -1.276,0.109 -1.918,0.141 0.021,4.385 0.041,8.781 0.058,13.203 0.638,-0.013 1.277,-0.031 1.916,-0.052 l 0.011,3.293 c 0.412,-0.009 0.825,-0.017 1.235,-0.028 l -0.023,-6.061 c 1.514,-0.089 3.042,-0.216 4.543,-0.378 l 0.008,2.822 c 0.87,-0.075 1.764,-0.162 2.656,-0.258 -0.013,-4.679 -0.025,-9.431 -0.035,-14.31 -0.836,0.241 -1.689,0.463 -2.538,0.659 -0.003,-1.077 -0.005,-2.164 -0.008,-3.25 4.275,-1.334 8.177,-3.509 11.517,-6.328 l 0.003,5.406 c -0.849,0.419 -1.712,0.82 -2.567,1.191 0.005,5.528 0.015,10.747 0.025,15.761 0.89,-0.146 1.762,-0.298 2.594,-0.452 l -0.004,-3.229 c 1.527,-0.357 3.054,-0.751 4.543,-1.169 0.003,2.756 0.006,5.407 0.009,7.976 l 1.461,3.112 c 2.834,6.037 5.756,12.263 8.631,18.148 l 1.763,-0.01 0.58,1.637 c 0.805,2.27 1.608,4.504 2.412,6.737 L 34.426,0 Z"
             style="fill:#100f0d;fill-opacity:1;fill-rule:nonzero;stroke:none"
             id="path875"
             inkscape:connector-curvature="0" /></g><g
           id="g877"
           transform="translate(170.7344,118.9292)"><path
             d="m 0,0 35.967,35.278 c 0,0 -5.557,-58.776 -53.982,-110.733 l 8.575,12.462 9.44,15.217 7.803,22.554 -2.682,9.961 -4.216,4.682 0.575,9.304 z"
             style="fill:#100f0d;fill-opacity:1;fill-rule:nonzero;stroke:none"
             id="path879"
             inkscape:connector-curvature="0" /></g><g
           id="g881"
           transform="translate(57.0288,118.9194)"><path
             d="m 0,0 -35.966,35.278 c 0,0 5.556,-58.776 53.981,-110.733 L 9.44,-62.993 0,-47.776 l -7.802,22.554 2.681,9.961 4.216,4.681 -0.575,9.305 z"
             style="fill:#100f0d;fill-opacity:1;fill-rule:nonzero;stroke:none"
             id="path883"
             inkscape:connector-curvature="0" /></g><g
           id="g885"
           transform="translate(61.9639,101.0078)"><path
             d="M 0,0 C 0.121,-0.72 0.25,-1.452 0.384,-2.191 3.37,-3.965 6.46,-5.496 9.577,-6.821 v -0.002 c 0.049,-0.022 0.098,-0.04 0.146,-0.061 0.516,-0.218 1.031,-0.431 1.548,-0.638 0.018,-0.007 0.036,-0.014 0.054,-0.022 0.044,-0.018 0.087,-0.035 0.13,-0.053 0,0.001 0,0.002 0,0.002 3.126,-1.243 6.262,-2.282 9.329,-3.154 l -10e-4,-0.004 c 0.107,-0.03 0.213,-0.059 0.32,-0.089 0.041,-0.011 0.082,-0.022 0.123,-0.034 0.298,-0.083 0.596,-0.166 0.893,-0.247 0,10e-4 0.001,0.003 0.001,0.003 1.011,-0.273 2.013,-0.528 3.004,-0.767 v -0.004 c 0.147,-0.035 0.29,-0.067 0.436,-0.101 0.203,-0.048 0.405,-0.095 0.607,-0.142 0.159,-0.037 0.318,-0.076 0.476,-0.111 v 0.003 c 3.292,-0.745 6.433,-1.309 9.307,-1.728 -3.277,0.731 -6.421,1.631 -9.307,2.576 v 1.578 l 7.543,4.656 9.009,-4.929 v -4.729 c 4.318,-0.379 7.32,-0.413 8.245,-0.413 0.258,0 0.401,0.002 0.415,0.002 l 0.062,10e-4 0.062,-10e-4 c 0.016,0 0.159,-0.002 0.417,-0.002 0.925,0 3.927,0.035 8.245,0.414 v 4.728 l 9.008,4.929 7.544,-4.656 v -1.743 c -2.442,-0.786 -5.056,-1.537 -7.776,-2.177 2.445,0.388 5.06,0.88 7.776,1.495 v -0.003 c 0.113,0.025 0.227,0.054 0.339,0.079 0.037,0.009 0.076,0.018 0.114,0.027 0.354,0.081 0.708,0.163 1.066,0.249 v 0.003 c 0.99,0.239 1.992,0.494 3.004,0.768 v -0.002 c 0.444,0.119 0.889,0.242 1.336,0.369 l -0.001,0.005 c 3.067,0.873 6.204,1.913 9.332,3.158 l -10e-4,-0.005 c 0.125,0.049 0.249,0.102 0.373,0.153 0.231,0.092 0.463,0.187 0.694,0.283 0.294,0.121 0.588,0.245 0.882,0.37 0.149,0.063 0.301,0.124 0.45,0.189 v 0.004 c 2.941,1.273 5.854,2.73 8.672,4.405 0.134,0.739 0.264,1.472 0.384,2.192 0.355,-0.331 1.623,-1.626 1.91,-3.439 0.016,-0.101 0.023,-0.207 0.032,-0.31 l 0.001,-10e-4 c 0.002,-0.018 0.004,-0.042 0.005,-0.063 0.004,-0.045 0.013,-0.089 0.015,-0.137 h 0.005 c 0,0 -0.005,-0.003 -0.008,-0.005 0.015,-0.178 0.032,-0.395 0.046,-0.604 -22.002,-13.436 -49.51,-13.933 -53.447,-13.933 -0.314,0 -0.479,0.003 -0.479,0.003 0,0 -0.164,-0.003 -0.477,-0.003 -3.935,0 -31.45,0.496 -53.455,13.938 0.016,0.219 0.035,0.421 0.052,0.598 -10e-4,0 -0.002,10e-4 -0.004,0.002 h 0.003 C -1.864,-1.87 -0.384,-0.359 0,0 m 22.496,-8.683 2.628,-1.378 v -0.823 c -0.982,0.337 -1.929,0.677 -2.836,1.015 0.062,0.398 0.13,0.794 0.208,1.186 m 19.94,22.631 V 10.916 L 34.347,6.329 32.063,7.952 c 2.988,2.646 6.506,4.703 10.373,5.996 m 8.732,-8.232 v -9.642 l -7.254,-4.913 -8.919,4.875 v 9.093 l 8.084,4.597 z m 1.5,0 8.089,4.01 8.084,-4.597 v -9.093 l -8.919,-4.875 -7.254,4.913 z m 8.731,8.232 c 3.868,-1.293 7.385,-3.35 10.374,-5.996 l -2.285,-1.623 -8.089,4.587 z m 17.313,-24.009 2.627,1.377 c 0.09,-0.45 0.165,-0.906 0.233,-1.364 -0.917,-0.337 -1.871,-0.675 -2.86,-1.01 z M -0.666,4.257 C -4.004,1.211 -4.935,-2.036 -4.935,-2.036 l 0.004,-0.006 -0.004,0.003 c 0,0 0.522,-29.936 20.492,-50.601 3.49,-1.528 17.894,-7.3 36.438,-7.3 10.43,0 23.555,2.07 36.234,7.249 20.02,20.666 20.542,50.652 20.542,50.652 -0.004,-0.003 -0.93,3.253 -4.268,6.299 1.69,11.704 1.73,19.87 1.731,20.381 l 0.009,5.609 -4.841,2.838 C 95.995,36.257 90.868,38.91 86.104,41.132 L 91.938,57.993 81.268,38.306 81.26,32.6 c 4.697,-2.163 9.798,-4.78 15.199,-7.946 0,0 -0.019,-13.055 -3.554,-29.851 C 91.58,-5.863 87.907,-7.646 82.884,-9.558 80.507,5.393 67.528,16.859 51.917,16.859 36.371,16.859 23.434,5.487 20.98,-9.373 14.884,-7.023 10.896,-4.919 10.896,-4.919 L 10.871,-4.91 C 7.396,11.747 7.377,24.654 7.377,24.654 c 5.358,3.141 10.42,5.74 15.085,7.892 l 0.021,4.486 0.007,1.562 c -0.09,0.18 -0.179,0.361 -0.269,0.542 L 11.791,58.257 17.685,41.111 C 12.935,38.893 7.822,36.246 2.434,33.088 l -4.84,-2.838 0.007,-5.609 c 10e-4,-0.511 0.042,-8.678 1.733,-20.384"
             style="fill:#100f0d;fill-opacity:1;fill-rule:nonzero;stroke:none"
             id="path887"
             inkscape:connector-curvature="0" /></g><g
           id="g889"
           transform="translate(146.5811,122.7891)"><path
             d="M 0,0 2.879,2.093 2.79,-1.465 5.67,-3.557 2.258,-4.571 1.159,-7.957 -0.86,-5.025 -4.42,-5.026 -2.255,-2.2 -3.356,1.186 Z"
             style="fill:#fff200;fill-opacity:1;fill-rule:nonzero;stroke:none"
             id="path891"
             inkscape:connector-curvature="0" /></g><g
           id="g893"
           transform="translate(151.1719,128.1411)"><path
             d="m 0,0 -2.67,-1.941 -2.185,-1.589 -2.549,0.9 -3.114,1.099 1.022,-3.139 0.836,-2.571 -1.645,-2.146 -2.007,-2.621 3.302,10e-4 2.703,10e-4 1.534,-2.227 1.873,-2.719 1.018,3.14 0.835,2.571 2.59,0.771 3.164,0.94 -2.671,1.94 -2.186,1.588 0.067,2.702 z m -1.712,-3.259 -0.089,-3.558 2.88,-2.092 -3.412,-1.014 -1.099,-3.386 -2.019,2.932 -3.56,-10e-4 2.165,2.826 -1.101,3.385 3.356,-1.185 z"
             style="fill:#100f0d;fill-opacity:1;fill-rule:nonzero;stroke:none"
             id="path895"
             inkscape:connector-curvature="0" /></g><g
           id="g897"
           transform="translate(80.1699,122.7891)"><path
             d="m 0,0 -2.88,2.093 0.09,-3.558 -2.88,-2.092 3.412,-1.014 1.099,-3.386 2.019,2.932 3.56,-10e-4 -2.165,2.826 1.101,3.386 z"
             style="fill:#fff200;fill-opacity:1;fill-rule:nonzero;stroke:none"
             id="path899"
             inkscape:connector-curvature="0" /></g><g
           id="g901"
           transform="translate(75.5781,128.1411)"><path
             d="m 0,0 0.083,-3.3 0.069,-2.702 -2.187,-1.588 -2.671,-1.94 3.164,-0.94 2.59,-0.771 0.835,-2.571 1.018,-3.14 1.873,2.719 1.534,2.227 2.703,-10e-4 3.302,-10e-4 -2.008,2.621 -1.644,2.146 0.836,2.571 1.022,3.139 L 7.405,-2.63 4.856,-3.53 2.67,-1.941 Z m 1.712,-3.259 2.88,-2.093 3.356,1.185 -1.101,-3.385 2.165,-2.826 -3.56,10e-4 -2.019,-2.932 -1.099,3.386 -3.412,1.014 2.88,2.092 z"
             style="fill:#100f0d;fill-opacity:1;fill-rule:nonzero;stroke:none"
             id="path903"
             inkscape:connector-curvature="0" /></g></g></g><g
       id="g905"><g
         id="g907"><g
           id="g913"><g
             id="g915"><path
               d="m 170.734,118.93 -0.401,-0.492 c -0.225,-3.257 -0.609,-7.46 -1.273,-12.288 v 0 c 2.678,-2.795 3.715,-5.54 3.993,-6.408 v 0 c 0.086,-0.26 0.129,-0.536 0.125,-0.815 v 0 c -0.005,-0.318 -0.167,-7.906 -2.842,-18.15 v 0 c -1.572,-6.019 -3.692,-11.712 -6.303,-16.921 v 0 c -3.28,-6.548 -7.346,-12.347 -12.085,-17.24 v 0 c -0.235,-0.243 -0.519,-0.434 -0.832,-0.562 v 0 c -2.894,-1.183 -5.734,-2.177 -8.489,-3.018 v 0 c 0.009,0.01 0.017,0.02 0.025,0.031 v 0 c -5.445,-1.73 -11.005,-2.961 -16.651,-3.681 v 0 c -3.621,-3.245 -7.644,-6.135 -12.119,-8.548 v 0 c -4.475,2.413 -8.497,5.303 -12.118,8.547 v 0 c -5.593,0.7 -10.437,1.794 -14.34,2.901 v 0 l -0.016,0.043 c -5.301,1.487 -9.103,3.027 -10.868,3.801 v 0 c -0.291,0.128 -0.555,0.312 -0.776,0.539 v 0 C 71.035,51.563 66.98,57.361 63.708,63.9 v 0 c -2.603,5.207 -4.718,10.892 -6.287,16.902 v 0 C 54.752,91.034 54.59,98.609 54.585,98.927 v 0 c 0,0.006 0,0.014 0,0.021 v 0 c -0.002,0.233 0.029,0.468 0.095,0.697 v 0 c 0.104,0.364 1.037,3.388 4.025,6.503 v 0 c -0.665,4.827 -1.049,9.023 -1.273,12.276 v 0 l -0.414,0.506 -32.5,28.258 c 0,0 1.767,-7.014 5.074,-17.528 v 0 l 17.341,-10.923 -15.54,5.33 c 1.364,-4.141 2.92,-8.653 4.656,-13.377 v 0 h 10.118 l -8.968,-3.084 C 45.998,84.299 59.002,56.839 75.032,43.475 v 0 c 0,0 5.727,-2.408 13.614,-4.71 v 0 l -0.01,0.032 c 6.051,-6.879 12.943,-12.431 20.607,-16.563 v 0 l 4.639,-2.502 4.638,2.502 c 7.657,4.127 14.542,9.673 20.589,16.542 v 0 l -0.003,-0.011 c 7.887,2.302 13.614,4.71 13.614,4.71 v 0 c 16.03,13.364 29.035,40.824 37.832,64.131 v 0 l -8.967,3.084 h 10.118 c 1.737,4.724 3.292,9.236 4.656,13.377 v 0 l -15.541,-5.33 17.342,10.923 c 3.307,10.514 5.074,17.528 5.074,17.528 v 0 z"
               style="fill:url(#linearGradient929);stroke:none"
               id="path931"
               inkscape:connector-curvature="0" /></g></g></g></g><g
       id="g933"><g
         id="g935"><g
           id="g941"><g
             id="g943"><path
               d="m 140.854,57.336 c -0.909,-0.224 -1.611,-0.531 -2.148,-0.938 v 0 c -0.689,-0.529 -1.226,-1.201 -1.593,-1.997 v 0 c -0.37,-0.8 -0.569,-1.707 -0.594,-2.695 v 0 c -0.023,-0.942 0.119,-1.759 0.422,-2.427 v 0 c 0.306,-0.673 0.749,-1.133 1.321,-1.37 v 0 c 0.29,-0.121 0.63,-0.18 1.006,-0.178 v 0 c 0.371,0.002 0.786,0.063 1.237,0.184 v 0 c 0.737,0.197 1.389,0.483 1.941,0.849 v 0 c 0.541,0.358 1.18,0.936 1.903,1.726 v 0 c 0.036,1.292 0.073,2.568 0.09,3.852 v 0 c -1.211,-0.354 -2.454,-0.691 -3.701,-1.021 v 0 l -0.032,-1.896 c 0.535,0.138 1.066,0.279 1.577,0.441 v 0 l -0.019,-0.749 0.002,-0.092 c -0.318,-0.304 -0.601,-0.537 -0.842,-0.69 v 0 c -0.244,-0.156 -0.5,-0.271 -0.764,-0.339 v 0 c -0.16,-0.042 -0.313,-0.064 -0.453,-0.065 v 0 c -0.34,-0.002 -0.618,0.12 -0.831,0.361 v 0 c -0.302,0.343 -0.441,1.011 -0.416,1.985 v 0 c 0.023,0.911 0.199,1.623 0.521,2.117 v 0 c 0.32,0.49 0.745,0.802 1.267,0.933 v 0 c 0.144,0.036 0.279,0.053 0.402,0.054 v 0 c 0.171,10e-4 0.322,-0.034 0.449,-0.102 v 0 c 0.219,-0.119 0.367,-0.329 0.474,-0.649 v 0 c 0.774,0.362 1.547,0.733 2.328,1.128 v 0 c -0.121,0.534 -0.318,0.956 -0.586,1.253 v 0 c -0.268,0.298 -0.617,0.482 -1.038,0.548 v 0 c -0.101,0.016 -0.215,0.024 -0.342,0.024 v 0 C 142.038,57.58 141.52,57.5 140.854,57.336"
               style="fill:url(#linearGradient953);stroke:none"
               id="path955"
               inkscape:connector-curvature="0" /></g></g></g></g><g
       id="g957"><g
         id="g959"><g
           id="g965"><g
             id="g967"><path
               d="m 133.053,55.549 c -0.041,-1.665 -0.081,-3.333 -0.086,-5.019 v 0 l -1.826,2.94 -1.026,1.631 c -0.754,-0.107 -1.51,-0.208 -2.28,-0.317 v 0 c -0.058,-3.02 -0.116,-6.069 -0.165,-9.257 v 0 -0.019 l 0.019,0.002 c 0.756,0.102 1.512,0.213 2.281,0.348 v 0 c 0.029,1.743 0.06,3.445 0.063,5.115 v 0 c 0.942,-1.533 1.883,-3.071 2.84,-4.629 v 0 c 0.756,0.14 1.511,0.29 2.278,0.466 v 0 c 0.062,3.138 0.134,6.15 0.195,9.168 v 0 c -0.759,-0.146 -1.519,-0.283 -2.293,-0.429"
               style="fill:url(#linearGradient977);stroke:none"
               id="path979"
               inkscape:connector-curvature="0" /></g></g></g></g><g
       id="g981"><g
         id="g983"><g
           id="g989"><g
             id="g991"><path
               d="m 123.642,54.354 -0.027,-1.748 c -0.037,-2.463 -0.075,-4.959 -0.108,-7.549 v 0 l -0.001,-0.019 0.019,0.002 c 0.806,0.074 1.612,0.158 2.432,0.268 v 0 c 0.046,3.195 0.1,6.25 0.135,9.292 v 0 c -0.812,-0.086 -1.624,-0.163 -2.45,-0.246"
               style="fill:url(#linearGradient1001);stroke:none"
               id="path1003"
               inkscape:connector-curvature="0" /></g></g></g></g><g
       id="g1005"><g
         id="g1007"><g
           id="g1013"><g
             id="g1015"><path
               d="m 119.639,54.089 -0.048,-4.282 0.022,-0.799 c -0.962,1.67 -1.931,3.327 -2.92,4.996 v 0 c -0.593,-0.013 -1.185,-0.02 -1.778,-0.025 v 0 l -0.506,-0.017 c -0.011,-3.041 -0.034,-6.117 -0.042,-9.348 v 0 l 0.523,0.003 c 0.581,0.002 1.161,0.011 1.756,0.04 v 0 l 0.017,1.654 v 3.525 c 0.962,-1.676 1.919,-3.363 2.888,-5.084 v 0 c 0.758,0.04 1.516,0.088 2.29,0.161 v 0 c 0.025,2.14 0.053,4.216 0.081,6.261 v 0 l 0.023,3.065 c -0.764,-0.053 -1.527,-0.098 -2.306,-0.15"
               style="fill:url(#linearGradient1025);stroke:none"
               id="path1027"
               inkscape:connector-curvature="0" /></g></g></g></g><g
       id="g1029"><g
         id="g1031"><g
           id="g1037"><g
             id="g1039"><path
               d="m 110.22,44.7 c 0.801,-0.033 1.603,-0.057 2.406,-0.071 v 0 l 0.016,-10e-4 v 0.017 c 0.022,3.211 0.04,6.288 0.027,9.345 v 0 c -0.811,0.013 -1.621,0.033 -2.446,0.046 v 0 C 110.23,50.993 110.22,47.919 110.22,44.7"
               style="fill:url(#linearGradient1049);stroke:none"
               id="path1051"
               inkscape:connector-curvature="0" /></g></g></g></g><g
       id="g1053"><g
         id="g1055"><g
           id="g1061"><g
             id="g1063"><path
               d="m 102.79,51.323 c -0.608,-1.911 -1.218,-3.833 -1.82,-5.799 v 0 c 0.806,-0.112 1.612,-0.212 2.44,-0.29 v 0 l 0.152,0.617 0.204,0.89 c 0.901,-0.096 1.804,-0.177 2.694,-0.234 v 0 c 0.129,-0.53 0.257,-1.062 0.4,-1.611 v 0 c 0.832,-0.063 1.667,-0.116 2.504,-0.158 v 0 l 0.023,-10e-4 -0.006,0.023 c -0.923,3.132 -1.882,6.234 -2.947,9.495 v 0 c -0.878,0.062 -1.755,0.134 -2.648,0.204 v 0 z m 1.506,-2.601 0.813,3.182 c 0.288,-1.103 0.573,-2.211 0.871,-3.309 v 0 c -0.566,0.045 -1.133,0.093 -1.684,0.127"
               style="fill:url(#linearGradient1073);stroke:none"
               id="path1075"
               inkscape:connector-curvature="0" /></g></g></g></g><g
       id="g1077"><g
         id="g1079"><g
           id="g1085"><g
             id="g1087"><path
               d="m 93.499,46.85 c 0.78,-0.171 1.563,-0.332 2.366,-0.466 v 0 c -0.009,1.251 -0.024,2.491 -0.064,3.709 v 0 l 0.208,-0.037 c 0.212,-0.037 0.404,-0.14 0.572,-0.307 v 0 c 0.127,-0.13 0.273,-0.39 0.434,-0.774 v 0 c 0.433,-1.006 0.859,-2.018 1.296,-3.049 v 0 c 0.888,-0.147 1.778,-0.283 2.67,-0.405 v 0 l 0.027,-0.003 -0.01,0.026 c -0.384,0.964 -0.771,1.918 -1.16,2.865 v 0 c -0.059,0.143 -0.172,0.354 -0.339,0.624 v 0 c -0.169,0.272 -0.299,0.454 -0.386,0.543 v 0 c -0.131,0.131 -0.342,0.277 -0.632,0.402 v 0 c 0.35,0.042 0.631,0.124 0.836,0.244 v 0 c 0.315,0.185 0.567,0.455 0.745,0.802 v 0 c 0.177,0.345 0.265,0.778 0.257,1.286 v 0 c -0.009,0.581 -0.139,1.097 -0.386,1.532 v 0 c -0.246,0.434 -0.572,0.758 -0.97,0.963 v 0 c -0.39,0.202 -0.948,0.356 -1.704,0.471 v 0 c -1.318,0.202 -2.653,0.43 -3.986,0.661 v 0 c 0.11,-3.026 0.179,-5.992 0.226,-9.087 m 3.273,4.83 c -0.333,0.054 -0.665,0.11 -0.984,0.152 v 0 c -0.013,0.609 -0.026,1.219 -0.041,1.827 v 0 c 0.34,-0.058 0.681,-0.114 1.022,-0.168 v 0 c 0.43,-0.068 0.726,-0.193 0.883,-0.37 v 0 c 0.157,-0.178 0.24,-0.414 0.246,-0.702 v 0 c 0.003,-0.195 -0.043,-0.361 -0.136,-0.496 v 0 c -0.095,-0.134 -0.218,-0.208 -0.369,-0.219 v 0 c -0.195,-0.022 -0.35,-0.033 -0.464,-0.034 v 0 c -0.066,0 -0.118,0.003 -0.157,0.01"
               style="fill:url(#linearGradient1097);stroke:none"
               id="path1099"
               inkscape:connector-curvature="0" /></g></g></g></g><g
       id="g1101"><g
         id="g1103"><g
           id="g1109"><g
             id="g1111"><path
               d="m 85.161,55.595 c 0.788,-0.216 1.577,-0.422 2.357,-0.605 v 0 c 0.102,-2.261 0.173,-4.506 0.227,-6.694 v 0 c 0.765,-0.218 1.533,-0.426 2.304,-0.625 v 0 l 0.021,-0.005 v 0.021 c -0.034,2.195 -0.096,4.464 -0.203,6.731 v 0 c 0.796,-0.18 1.595,-0.352 2.415,-0.498 v 0 c -0.024,0.743 -0.051,1.488 -0.092,2.248 v 0 c -2.393,0.477 -4.796,1.037 -7.163,1.647 v 0 c 0.045,-0.74 0.084,-1.474 0.134,-2.22"
               style="fill:url(#linearGradient1121);stroke:none"
               id="path1123"
               inkscape:connector-curvature="0" /></g></g></g></g><g
       id="g1125"><g
         id="g1127"><g
           id="g1133"><g
             id="g1135"><path
               d="m 144.515,69.941 c -0.161,-3.063 -0.3,-6.077 -0.423,-9.213 v 0 l -0.001,-0.021 0.022,0.005 c 2.041,0.558 4.098,1.186 6.123,1.878 v 0 c 0.033,0.731 0.069,1.467 0.086,2.225 v 0 c -1.225,-0.41 -2.48,-0.805 -3.707,-1.19 v 0 c 0.11,2.399 0.23,4.69 0.345,7.022 v 0 c -0.81,-0.24 -1.62,-0.47 -2.445,-0.706"
               style="fill:url(#linearGradient1145);stroke:none"
               id="path1147"
               inkscape:connector-curvature="0" /></g></g></g></g><g
       id="g1149"><g
         id="g1151"><g
           id="g1157"><g
             id="g1159"><path
               d="m 138.093,68.391 c -0.851,-2.581 -1.685,-5.066 -2.508,-7.515 v 0 l -0.767,-2.285 0.028,0.003 c 0.824,0.153 1.65,0.316 2.485,0.498 v 0 l 0.417,1.555 c 0.916,0.193 1.832,0.397 2.726,0.624 v 0 l 0.358,-1.404 c 0.84,0.203 1.679,0.416 2.529,0.661 v 0 c -0.923,2.929 -1.761,5.698 -2.58,8.473 v 0 c -0.89,-0.212 -1.782,-0.411 -2.688,-0.61 m 1.225,-2.226 c 0.242,-1.031 0.484,-2.046 0.738,-3.031 v 0 c -0.572,-0.132 -1.146,-0.26 -1.703,-0.403 v 0 z"
               style="fill:url(#linearGradient1169);stroke:none"
               id="path1171"
               inkscape:connector-curvature="0" /></g></g></g></g><g
       id="g1173"><g
         id="g1175"><g
           id="g1181"><g
             id="g1183"><path
               d="m 131.811,67.24 -0.14,-5.642 c -0.013,-0.5 -0.14,-0.906 -0.383,-1.213 v 0 c -0.242,-0.305 -0.573,-0.489 -0.986,-0.547 v 0 c -0.077,-0.011 -0.153,-0.017 -0.224,-0.017 v 0 c -0.31,-0.002 -0.562,0.098 -0.747,0.295 v 0 c -0.23,0.242 -0.339,0.612 -0.33,1.102 v 0 c 0.038,1.852 0.076,3.722 0.092,5.653 v 0 c -0.821,-0.105 -1.644,-0.202 -2.481,-0.305 v 0 c -0.025,-1.867 -0.052,-3.693 -0.084,-5.503 v 0 c -0.007,-0.447 0.061,-0.956 0.202,-1.516 v 0 c 0.086,-0.35 0.256,-0.683 0.503,-0.993 v 0 c 0.248,-0.309 0.527,-0.54 0.829,-0.687 v 0 c 0.302,-0.146 0.684,-0.221 1.136,-0.225 v 0 h 0.091 c 0.414,0.004 0.805,0.03 1.163,0.081 v 0 c 0.657,0.095 1.233,0.284 1.713,0.561 v 0 c 0.344,0.197 0.679,0.504 0.998,0.91 v 0 c 0.319,0.409 0.561,0.868 0.719,1.366 v 0 c 0.157,0.501 0.246,1.027 0.26,1.564 v 0 c 0.052,1.809 0.106,3.642 0.143,5.538 v 0 c -0.82,-0.144 -1.639,-0.28 -2.474,-0.422"
               style="fill:url(#linearGradient1193);stroke:none"
               id="path1195"
               inkscape:connector-curvature="0" /></g></g></g></g><g
       id="g1197"><g
         id="g1199"><g
           id="g1205"><g
             id="g1207"><path
               d="m 121.995,66.173 c -0.12,0 -0.243,-0.005 -0.372,-0.013 v 0 c -1.223,-0.075 -2.462,-0.131 -3.701,-0.185 v 0 c 0.016,-2.848 0.012,-5.761 -0.008,-9.169 v 0 l 0.001,-0.016 h 0.017 c 1.214,0.038 2.433,0.095 3.625,0.171 v 0 c 0.435,0.027 0.927,0.146 1.461,0.349 v 0 c 0.395,0.15 0.769,0.423 1.117,0.814 v 0 c 0.346,0.39 0.623,0.867 0.822,1.418 v 0 c 0.202,0.553 0.31,1.325 0.324,2.297 v 0 c 0.009,0.621 -0.049,1.215 -0.172,1.763 v 0 c -0.122,0.55 -0.332,1.032 -0.616,1.433 v 0 c -0.287,0.402 -0.659,0.706 -1.106,0.902 v 0 c -0.355,0.156 -0.812,0.236 -1.356,0.236 v 0 c -0.012,0 -0.024,0 -0.036,0 m -1.577,-2.221 0.615,0.034 c 0.057,0.002 0.112,0.004 0.166,0.005 v 0 c 0.546,0.004 0.946,-0.151 1.19,-0.455 v 0 c 0.27,-0.338 0.402,-0.997 0.393,-1.959 v 0 c -0.009,-0.723 -0.075,-1.259 -0.2,-1.589 v 0 c -0.125,-0.329 -0.296,-0.567 -0.51,-0.709 v 0 c -0.217,-0.144 -0.581,-0.231 -1.085,-0.26 v 0 l -0.58,-0.049 c 0.012,1.654 0.022,3.315 0.011,4.982"
               style="fill:url(#linearGradient1217);stroke:none"
               id="path1219"
               inkscape:connector-curvature="0" /></g></g></g></g><g
       id="g1221"><g
         id="g1223"><g
           id="g1229"><g
             id="g1231"><path
               d="m 114.54,65.942 c -0.302,-0.002 -0.607,-0.004 -0.918,-0.012 v 0 c 0.043,-2.882 0.064,-5.883 0.082,-9.191 v 0 c 0.44,-0.004 0.882,-0.004 1.321,-0.002 v 0 c 0.375,0.003 0.748,0.006 1.141,0.029 v 0 c 0.01,3.337 0.002,6.337 -0.041,9.187 v 0 c -0.3,-0.004 -1.355,-0.01 -1.585,-0.011"
               style="fill:url(#linearGradient1241);stroke:none"
               id="path1243"
               inkscape:connector-curvature="0" /></g></g></g></g><g
       id="g1245"><g
         id="g1247"><g
           id="g1253"><g
             id="g1255"><path
               d="m 107.25,56.959 c 0.878,-0.055 1.756,-0.1 2.635,-0.134 v 0 l 0.012,-0.001 0.005,0.012 c 1.061,3.333 1.951,6.156 2.828,9.122 v 0 c -0.839,0.014 -1.678,0.036 -2.534,0.057 v 0 c -0.477,-1.95 -1.002,-4.034 -1.618,-6.558 v 0 c -0.623,2.219 -1.267,4.456 -1.952,6.764 v 0 c -0.863,0.06 -1.726,0.129 -2.606,0.187 v 0 c 1.262,-3.626 2.284,-6.625 3.23,-9.449"
               style="fill:url(#linearGradient1265);stroke:none"
               id="path1267"
               inkscape:connector-curvature="0" /></g></g></g></g><g
       id="g1269"><g
         id="g1271"><g
           id="g1277"><g
             id="g1279"><path
               d="m 100.894,57.533 c 0.807,-0.096 1.615,-0.182 2.423,-0.261 v 0 l 0.019,-10e-4 -0.001,0.019 c -0.063,3.159 -0.152,6.176 -0.286,9.235 v 0 c -0.827,0.083 -1.651,0.175 -2.496,0.26 v 0 c 0.143,-3.103 0.249,-6.123 0.341,-9.252"
               style="fill:url(#linearGradient1289);stroke:none"
               id="path1291"
               inkscape:connector-curvature="0" /></g></g></g></g><g
       id="g1293"><g
         id="g1295"><g
           id="g1301"><g
             id="g1303"><path
               d="m 92.385,58.859 c 1.177,-0.228 2.374,-0.441 3.555,-0.633 v 0 c 0.199,-0.032 0.41,-0.047 0.626,-0.046 v 0 c 0.254,10e-4 0.525,0.026 0.803,0.073 v 0 c 0.383,0.063 0.744,0.255 1.069,0.572 v 0 c 0.326,0.318 0.58,0.739 0.753,1.252 v 0 c 0.174,0.519 0.242,1.278 0.204,2.254 v 0 c -0.024,0.625 -0.114,1.24 -0.268,1.825 v 0 c -0.154,0.584 -0.39,1.117 -0.699,1.588 v 0 c -0.31,0.471 -0.698,0.862 -1.154,1.162 v 0 c -0.453,0.297 -1.05,0.509 -1.773,0.631 v 0 c -1.227,0.205 -2.454,0.43 -3.669,0.652 v 0 c 0.225,-3.248 0.401,-6.293 0.553,-9.33 m 2.899,1.571 -0.576,0.086 c -0.076,1.664 -0.161,3.343 -0.259,5.047 v 0 l 0.588,-0.101 c 0.629,-0.107 1.093,-0.364 1.379,-0.765 v 0 c 0.291,-0.406 0.459,-1.104 0.502,-2.077 v 0 c 0.034,-0.73 -0.003,-1.257 -0.111,-1.567 v 0 C 96.701,60.75 96.545,60.548 96.341,60.452 v 0 c -0.108,-0.05 -0.259,-0.077 -0.45,-0.078 v 0 c -0.003,0 -0.007,0 -0.011,0 v 0 c -0.168,0 -0.368,0.02 -0.596,0.056"
               style="fill:url(#linearGradient1313);stroke:none"
               id="path1315"
               inkscape:connector-curvature="0" /></g></g></g></g><g
       id="g1317"><g
         id="g1319"><g
           id="g1325"><g
             id="g1327"><path
               d="m 83.456,60.957 c 0.735,-0.203 1.472,-0.4 2.231,-0.572 v 0 c -0.11,1.672 -0.235,3.366 -0.404,5.082 v 0 c 1.107,-1.974 2.185,-3.894 3.248,-5.793 v 0 c 0.744,-0.171 1.492,-0.333 2.239,-0.489 v 0 l 0.021,-0.005 -0.002,0.021 c -0.15,2.989 -0.342,6.042 -0.597,9.348 v 0 c -0.77,0.167 -1.538,0.34 -2.325,0.503 v 0 c 0.144,-1.78 0.274,-3.525 0.423,-5.235 v 0 c 0,0 -2.403,4.271 -3.372,5.992 v 0 c -0.757,0.198 -1.513,0.405 -2.289,0.602 v 0 c 0.333,-3.428 0.6,-6.515 0.827,-9.454"
               style="fill:url(#linearGradient1337);stroke:none"
               id="path1339"
               inkscape:connector-curvature="0" /></g></g></g></g><g
       id="g1341"><g
         id="g1343"><g
           id="g1349"><g
             id="g1351"><path
               d="m 79.429,62.149 c 0.775,-0.246 1.552,-0.481 2.332,-0.71 v 0 l 0.023,-0.007 -0.001,0.024 c -0.228,2.871 -0.514,5.968 -0.887,9.484 v 0 c -0.807,0.242 -1.613,0.493 -2.44,0.734 v 0 c 0.397,-3.565 0.711,-6.675 0.973,-9.525"
               style="fill:url(#linearGradient1361);stroke:none"
               id="path1363"
               inkscape:connector-curvature="0" /></g></g></g></g><g
       id="g1365"><g
         id="g1367"><g
           id="g1373"><g
             id="g1375"><path
               d="m 158.234,88.15 c -0.507,-3.851 -0.924,-7.479 -1.27,-11.088 v 0 l -0.002,-0.026 0.024,0.008 c 2.061,0.822 4.131,1.716 6.166,2.668 v 0 c 0.101,0.852 0.21,1.721 0.301,2.627 v 0 c -1.246,-0.581 -2.519,-1.152 -3.762,-1.709 v 0 c 0.323,2.825 0.691,5.642 1.1,8.632 v 0 c -0.848,-0.376 -1.697,-0.743 -2.557,-1.112"
               style="fill:url(#linearGradient1385);stroke:none"
               id="path1387"
               inkscape:connector-curvature="0" /></g></g></g></g><g
       id="g1389"><g
         id="g1391"><g
           id="g1397"><g
             id="g1399"><path
               d="m 150.539,85.21 c -0.354,-3.77 -0.65,-7.301 -0.902,-10.795 v 0 l -0.001,-0.025 0.023,0.008 c 2.088,0.678 4.183,1.422 6.238,2.228 v 0 c 0.078,0.836 0.159,1.687 0.224,2.57 v 0 c -1.266,-0.494 -2.552,-0.972 -3.802,-1.437 v 0 c 0.236,2.745 0.5,5.479 0.785,8.376 v 0 c -0.852,-0.314 -1.702,-0.617 -2.565,-0.925"
               style="fill:url(#linearGradient1409);stroke:none"
               id="path1411"
               inkscape:connector-curvature="0" /></g></g></g></g><g
       id="g1413"><g
         id="g1415"><g
           id="g1421"><g
             id="g1423"><path
               d="m 143.825,83.111 c -1.253,-4 -2.439,-7.702 -3.622,-11.318 v 0 l -0.01,-0.029 0.03,0.007 c 0.839,0.197 1.679,0.403 2.529,0.629 v 0 l 0.299,1.096 0.167,0.641 c 0.936,0.246 1.872,0.504 2.783,0.789 v 0 c 0.098,-0.52 0.196,-1.034 0.316,-1.557 v 0 c 0.856,0.25 1.71,0.51 2.575,0.8 v 0 c -0.758,3.023 -1.493,6.215 -2.263,9.775 v 0 c -0.931,-0.287 -1.861,-0.56 -2.804,-0.833 m 1.178,-2.592 c 0.209,-1.204 0.418,-2.374 0.64,-3.498 v 0 c -0.589,-0.17 -1.179,-0.336 -1.748,-0.516 v 0 c 0.361,1.303 0.73,2.637 1.108,4.014"
               style="fill:url(#linearGradient1433);stroke:none"
               id="path1435"
               inkscape:connector-curvature="0" /></g></g></g></g><g
       id="g1437"><g
         id="g1439"><g
           id="g1445"><g
             id="g1447"><path
               d="m 137.988,81.573 c -0.197,-10e-4 -0.413,-0.027 -0.642,-0.078 v 0 c -1.585,-0.348 -3.199,-0.668 -4.811,-0.964 v 0 c -0.075,-3.664 -0.154,-7.057 -0.233,-10.291 v 0 l -0.001,-0.021 0.02,0.003 c 1.425,0.227 2.865,0.486 4.283,0.768 v 0 c 0.188,0.037 0.575,0.162 1.116,0.36 v 0 c 0.418,0.155 0.74,0.331 0.957,0.527 v 0 c 0.344,0.309 0.628,0.698 0.838,1.156 v 0 c 0.214,0.458 0.332,0.956 0.356,1.481 v 0 c 0.029,0.65 -0.084,1.169 -0.34,1.54 v 0 c -0.256,0.375 -0.679,0.592 -1.252,0.613 v 0 c 0.391,0.255 0.698,0.559 0.912,0.904 v 0 c 0.322,0.518 0.5,1.103 0.529,1.74 v 0 c 0.036,0.768 -0.15,1.374 -0.553,1.802 v 0 c -0.286,0.306 -0.679,0.46 -1.166,0.46 v 0 c -0.005,0 -0.009,0 -0.013,0 m -2.932,-3.818 0.018,1.034 c 0.375,0.074 0.75,0.148 1.123,0.226 v 0 c 0.133,0.027 0.253,0.041 0.357,0.042 v 0 c 0.193,0.001 0.337,-0.044 0.43,-0.134 v 0 c 0.144,-0.139 0.211,-0.364 0.199,-0.668 v 0 c -0.012,-0.329 -0.098,-0.599 -0.256,-0.803 v 0 c -0.159,-0.204 -0.435,-0.347 -0.822,-0.425 v 0 c -0.366,-0.075 -0.731,-0.146 -1.078,-0.233 v 0 z m -0.123,-4.004 0.02,1.06 c 0.425,0.08 0.85,0.163 1.275,0.247 v 0 c 0.159,0.033 0.302,0.049 0.426,0.05 v 0 c 0.209,10e-4 0.367,-0.044 0.47,-0.134 v 0 c 0.164,-0.143 0.241,-0.366 0.23,-0.658 v 0 c -0.013,-0.318 -0.111,-0.591 -0.29,-0.813 v 0 c -0.18,-0.222 -0.486,-0.378 -0.908,-0.46 v 0 c -0.423,-0.084 -0.847,-0.165 -1.252,-0.26 v 0 z"
               style="fill:url(#linearGradient1457);stroke:none"
               id="path1459"
               inkscape:connector-curvature="0" /></g></g></g></g><g
       id="g1461"><g
         id="g1463"><g
           id="g1469"><g
             id="g1471"><path
               d="m 123.574,79.337 c 0.007,-0.888 0.014,-1.76 0.037,-2.635 v 0 c 0.865,0.076 1.73,0.163 2.576,0.277 v 0 c -0.004,-2.631 -0.02,-5.131 -0.043,-7.55 v 0 -0.018 l 0.018,0.002 c 0.83,0.085 1.661,0.179 2.505,0.301 v 0 c 0.038,2.425 0.072,4.936 0.083,7.563 v 0 c 0.864,0.116 1.728,0.243 2.607,0.397 v 0 l 0.025,2.674 c -2.588,-0.424 -5.21,-0.758 -7.808,-1.011"
               style="fill:url(#linearGradient1481);stroke:none"
               id="path1483"
               inkscape:connector-curvature="0" /></g></g></g></g><g
       id="g1485"><g
         id="g1487"><g
           id="g1493"><g
             id="g1495"><path
               d="m 118.712,79.196 c -0.079,0 -0.159,-0.001 -0.24,-0.006 v 0 c -1.347,-0.058 -2.395,-0.578 -3.117,-1.542 v 0 c -0.718,-0.956 -1.057,-2.279 -1.014,-3.93 v 0 c 0.033,-1.181 0.239,-2.128 0.632,-2.892 v 0 c 0.388,-0.755 0.89,-1.307 1.492,-1.641 v 0 c 0.56,-0.312 1.258,-0.467 2.072,-0.462 v 0 c 0.069,0 0.137,0.002 0.206,0.005 v 0 c 0.893,0.033 1.651,0.271 2.253,0.708 v 0 c 0.6,0.436 1.066,1.039 1.383,1.793 v 0 c 0.317,0.757 0.476,1.734 0.472,2.903 v 0 c -0.009,1.64 -0.396,2.921 -1.149,3.811 v 0 c -0.707,0.832 -1.704,1.254 -2.962,1.253 v 0 c -0.009,0 -0.019,0 -0.028,0 M 117.4,71.594 c -0.314,0.427 -0.476,1.127 -0.496,2.141 v 0 c -0.021,1.023 0.118,1.775 0.414,2.23 v 0 c 0.295,0.459 0.702,0.701 1.207,0.721 v 0 l 0.067,0.002 c 0.497,0.004 0.902,-0.202 1.204,-0.61 v 0 c 0.316,-0.428 0.483,-1.126 0.494,-2.072 v 0 c 0.012,-1.11 -0.129,-1.893 -0.419,-2.331 v 0 c -0.287,-0.433 -0.703,-0.662 -1.29,-0.684 v 0 c -0.003,0 -0.006,0 -0.009,0 v 0 c -0.485,0 -0.881,0.203 -1.172,0.603"
               style="fill:url(#linearGradient1505);stroke:none"
               id="path1507"
               inkscape:connector-curvature="0" /></g></g></g></g><g
       id="g1509"><g
         id="g1511"><g
           id="g1517"><g
             id="g1519"><path
               d="m 108.532,79.208 c -1.204,-0.007 -2.142,-0.431 -2.788,-1.26 v 0 c -0.691,-0.885 -1.001,-2.172 -0.917,-3.824 v 0 c 0.059,-1.166 0.294,-2.156 0.698,-2.943 v 0 c 0.405,-0.786 0.918,-1.381 1.527,-1.766 v 0 c 0.614,-0.387 1.384,-0.605 2.289,-0.645 v 0 c 0.095,-0.006 0.188,-0.007 0.281,-0.006 v 0 c 0.768,0.003 1.427,0.181 1.957,0.525 v 0 c 0.592,0.385 1.046,0.946 1.347,1.67 v 0 c 0.301,0.73 0.438,1.688 0.404,2.846 v 0 c -0.049,1.625 -0.469,2.929 -1.248,3.875 v 0 c -0.778,0.946 -1.874,1.459 -3.258,1.522 v 0 c -0.087,0.004 -0.172,0.006 -0.255,0.006 v 0 c -0.012,0 -0.025,0 -0.037,0 m 0.655,-8.168 c -0.516,0.025 -0.939,0.262 -1.256,0.706 v 0 c -0.322,0.452 -0.501,1.165 -0.545,2.178 v 0 c -0.045,1.023 0.076,1.757 0.359,2.183 v 0 c 0.268,0.402 0.638,0.607 1.1,0.61 v 0 l 0.088,-0.002 c 0.53,-0.024 0.962,-0.265 1.289,-0.716 v 0 c 0.328,-0.453 0.511,-1.16 0.546,-2.102 v 0 c 0.038,-1.103 -0.083,-1.872 -0.364,-2.283 v 0 c -0.26,-0.381 -0.636,-0.574 -1.117,-0.577 v 0 z"
               style="fill:url(#linearGradient1529);stroke:none"
               id="path1531"
               inkscape:connector-curvature="0" /></g></g></g></g><g
       id="g1533"><g
         id="g1535"><g
           id="g1541"><g
             id="g1543"><path
               d="m 97.881,70.042 c 0.832,-0.123 1.664,-0.236 2.498,-0.341 v 0 l 0.02,-0.003 -0.001,0.019 c -0.069,1.315 -0.144,2.649 -0.246,3.992 v 0 c 1.053,-0.135 2.116,-0.257 3.174,-0.343 v 0 c -0.035,0.669 -0.072,1.346 -0.125,2.046 v 0 c -1.031,0.103 -2.099,0.227 -3.157,0.351 v 0 c -0.037,0.592 -0.077,1.19 -0.136,1.777 v 0 c 1.23,-0.162 2.486,-0.305 3.748,-0.406 v 0 c -0.043,0.741 -0.089,1.492 -0.151,2.267 v 0 c -2.094,0.201 -4.217,0.468 -6.33,0.776 v 0 c 0.275,-3.564 0.502,-6.875 0.706,-10.135"
               style="fill:url(#linearGradient1553);stroke:none"
               id="path1555"
               inkscape:connector-curvature="0" /></g></g></g></g><g
       id="g1557"><g
         id="g1559"><g
           id="g1565"><g
             id="g1567"><path
               d="m 81.379,82.537 c 0.885,-3.314 1.732,-6.487 2.543,-9.553 v 0 c 0.803,-0.222 1.607,-0.433 2.432,-0.621 v 0 c 0.278,1.98 0.551,4.01 0.777,6.031 v 0 c 0.685,-2.304 1.346,-4.534 1.996,-6.714 v 0 c 0.806,-0.184 1.616,-0.358 2.424,-0.522 v 0 l 0.018,-0.005 10e-4,0.018 c 0.36,3.306 0.672,6.524 0.941,9.857 v 0 c -0.802,0.16 -1.603,0.33 -2.423,0.495 v 0 C 89.984,79.589 89.872,77.71 89.784,75.882 v 0 l -1.391,4.732 -0.429,1.424 c -0.801,0.195 -1.602,0.398 -2.422,0.599 v 0 c -0.214,-1.903 -0.433,-3.754 -0.625,-5.562 v 0 c -0.476,1.998 -0.969,4.047 -1.488,6.166 v 0 c -0.802,0.23 -1.603,0.471 -2.424,0.699 v 0 z"
               style="fill:url(#linearGradient1577);stroke:none"
               id="path1579"
               inkscape:connector-curvature="0" /></g></g></g></g><g
       id="g1581"><g
         id="g1583"><g
           id="g1589"><g
             id="g1591"><path
               d="m 75.002,75.807 c 2.207,-0.792 4.445,-1.525 6.652,-2.177 v 0 l 0.024,-0.007 -0.003,0.025 c -0.079,0.758 -0.16,1.521 -0.255,2.308 v 0 c -1.389,0.416 -2.819,0.874 -4.238,1.348 v 0 l -0.272,2.043 c 1.278,-0.443 2.575,-0.868 3.878,-1.245 v 0 l -0.252,2.153 c -1.304,0.408 -2.61,0.841 -3.87,1.274 v 0 l -0.236,1.696 c 1.411,-0.501 2.827,-0.972 4.23,-1.386 v 0 l -0.277,2.322 c -2.259,0.716 -4.532,1.512 -6.78,2.348 v 0 c 0.488,-3.704 0.958,-7.268 1.399,-10.702"
               style="fill:url(#linearGradient1601);stroke:none"
               id="path1603"
               inkscape:connector-curvature="0" /></g></g></g></g><g
       id="g1605"><g
         id="g1607"><g
           id="g1613"><g
             id="g1615"><path
               d="m 65.298,83.542 0.657,-4.083 c 0.748,-0.336 1.498,-0.666 2.273,-0.968 v 0 c -0.29,1.933 -0.589,3.912 -0.928,5.92 v 0 c 1.3,-2.458 2.572,-4.835 3.821,-7.138 v 0 c 0.757,-0.3 1.515,-0.592 2.277,-0.877 v 0 l 0.025,-0.01 -0.003,0.027 c -0.407,3.084 -0.841,6.285 -1.292,9.593 v 0 l -0.168,1.172 c -0.79,0.315 -1.579,0.64 -2.389,0.955 v 0 l 0.382,-2.68 0.519,-3.411 c -1.274,2.387 -2.594,4.891 -3.931,7.449 v 0 c -0.779,0.351 -1.557,0.714 -2.357,1.069 v 0 c 0.375,-2.383 0.748,-4.727 1.114,-7.018"
               style="fill:url(#linearGradient1625);stroke:none"
               id="path1627"
               inkscape:connector-curvature="0" /></g></g></g></g><g
       id="g1629"><g
         id="g1631"><g
           id="g1637"><g
             id="g1639"><path
               d="m 143.579,168.159 c -0.579,-2.235 -1.158,-4.465 -1.738,-6.712 v 0 c 0.519,-0.002 1.04,-0.005 1.559,-0.007 v 0 c -0.912,-2.226 -1.824,-4.467 -2.737,-6.73 v 0 c -0.183,-0.434 -0.402,-0.99 -0.651,-1.665 v 0 c -0.246,-0.662 -0.494,-1.341 -0.744,-2.032 v 0 c -0.246,-0.68 -0.474,-1.329 -0.686,-1.951 v 0 c -0.208,-0.612 -0.368,-1.112 -0.479,-1.503 v 0 c -0.039,0.002 -0.079,0.004 -0.118,0.008 v 0 c 0.075,0.438 0.158,0.942 0.249,1.511 v 0 c 0.092,0.578 0.186,1.187 0.285,1.83 v 0 c 0.1,0.655 0.198,1.332 0.29,2.031 v 0 c 0.096,0.713 0.171,1.398 0.223,2.051 v 0 c 0.423,4.464 0.843,8.804 1.261,13.169 v 0 h -6.388 c -0.986,-3.66 -1.977,-7.295 -2.968,-10.935 v 0 c -0.273,-1.003 -0.543,-2.02 -0.814,-3.049 v 0 c -0.261,-1 -0.501,-1.923 -0.722,-2.774 v 0 c -0.214,-0.832 -0.397,-1.55 -0.55,-2.165 v 0 c -0.15,-0.605 -0.244,-1.011 -0.284,-1.23 v 0 c -0.041,0.002 -0.079,0.003 -0.119,0.004 v 0 c -0.005,0.243 -0.003,0.648 0.006,1.221 v 0 c 0.007,0.583 0.014,1.222 0.016,1.92 v 0 c 0.001,0.712 -0.001,1.433 -0.009,2.161 v 0 c -0.007,0.744 -0.022,1.357 -0.043,1.834 v 0 c -0.031,2.115 -0.063,4.226 -0.095,6.34 v 0 c 0.548,-0.002 1.096,-0.002 1.642,-0.004 v 0 c 0.251,2.22 0.498,4.443 0.745,6.677 v 0 h -10.136 c 0.015,-2.234 0.03,-4.454 0.041,-6.662 v 0 c 0.529,-0.001 1.059,-0.001 1.588,-0.002 v 0 c 0.834,-6.67 1.66,-13.234 2.486,-19.961 v 0 c 1.637,-0.095 3.276,-0.212 4.915,-0.348 v 0 c 0.826,2.374 1.652,4.763 2.476,7.153 v 0 c 0.088,0.246 0.191,0.551 0.309,0.915 v 0 c 0.117,0.369 0.239,0.76 0.366,1.173 v 0 c 0.128,0.417 0.247,0.828 0.358,1.231 v 0 c 0.11,0.408 0.208,0.751 0.289,1.028 v 0 c 0.035,0 0.068,-0.001 0.102,-0.003 v 0 c -0.02,-0.303 -0.039,-0.655 -0.058,-1.052 v 0 c -0.02,-0.394 -0.042,-0.796 -0.064,-1.206 v 0 c -0.024,-0.407 -0.038,-0.802 -0.043,-1.189 v 0 c -0.003,-0.383 -0.008,-0.723 -0.015,-1.019 v 0 c -0.012,-2.418 -0.022,-4.872 -0.035,-7.376 v 0 c 1.675,-0.173 3.35,-0.368 5.024,-0.585 v 0 c 3.364,7.167 6.724,14.352 10.074,21.163 v 0 c 0.519,-0.003 1.039,-0.006 1.56,-0.009 v 0 c 0.806,2.275 1.61,4.513 2.417,6.749 v 0 z m -43.071,0 c 0.54,-2.266 1.08,-4.519 1.618,-6.764 v 0 c 0.595,10e-4 1.189,0.003 1.784,0.004 v 0 c 1.173,-5.398 2.34,-10.742 3.501,-16.017 v 0 c -0.474,-0.01 -0.946,-0.022 -1.419,-0.036 v 0 c 0.294,-1.211 0.588,-2.419 0.881,-3.623 v 0 c 4.254,0.157 8.511,0.168 12.768,0.036 v 0 c -0.048,2.154 -0.096,4.309 -0.145,6.47 v 0 c -1.357,0.019 -2.715,0.031 -4.072,0.036 v 0 c 0.081,-0.94 0.162,-1.879 0.242,-2.817 v 0 c -1.2,0.008 -2.4,0.009 -3.599,0.001 v 0 c -0.246,1.699 -0.493,3.405 -0.741,5.116 v 0 c 1.544,0.008 3.088,0.009 4.632,0.003 v 0 c -0.122,1.626 -0.244,3.256 -0.367,4.893 v 0 c -1.656,10e-4 -3.312,10e-4 -4.969,-0.003 v 0 c -0.284,1.972 -0.569,3.954 -0.853,5.947 v 0 c 1.507,0.001 3.017,0.001 4.526,0.001 v 0 c 0.114,-1.32 0.227,-2.636 0.34,-3.947 v 0 c 1.55,0 3.099,-0.002 4.65,-0.007 v 0 c -0.082,3.539 -0.168,7.105 -0.255,10.707 v 0 z m -10.78,0 c 0.807,-2.219 1.611,-4.43 2.415,-6.645 v 0 c 0.652,0.002 1.304,0.004 1.955,0.005 v 0 c 1.117,-3.295 2.233,-6.593 3.345,-9.885 v 0 c -4.375,5.448 -8.76,11.009 -13.151,16.525 v 0 h -8.815 c 1.171,-2.221 2.342,-4.444 3.511,-6.695 v 0 c 0.549,0.002 1.097,0.005 1.644,0.007 v 0 c 2.81,-5.6 5.612,-11.41 8.402,-17.235 v 0 c -0.442,-0.04 -0.882,-0.08 -1.324,-0.122 v 0 c 0.634,-1.282 1.269,-2.563 1.902,-3.838 v 0 c 2.165,0.282 4.328,0.528 6.493,0.734 v 0 c -0.502,1.218 -1.005,2.441 -1.507,3.667 v 0 c -0.577,-0.04 -1.152,-0.082 -1.729,-0.125 v 0 c -1.26,2.913 -2.522,5.837 -3.786,8.742 v 0 c 3.6,-4.097 7.195,-8.13 10.786,-11.963 v 0 c 1.517,0.113 3.033,0.208 4.55,0.284 v 0 c -1.861,6.547 -3.731,13.216 -5.615,19.916 v 0 c 0.624,0.001 1.248,0.002 1.872,0.004 v 0 c -0.567,2.199 -1.134,4.405 -1.703,6.624 v 0 z"
               style="fill:url(#linearGradient1649);stroke:none"
               id="path1651"
               inkscape:connector-curvature="0" /></g></g></g></g><g
       id="g1653"><g
         id="g1655"
         clip-path="url(#clipPath1659)"><g
           id="g1661"
           transform="translate(100.001,141.668)"><path
             d="m 0,0 c -3.884,4.15 -7.74,8.504 -10.674,11.842 l -1.43,1.729 0.887,-2.074 c 0.997,-2.29 1.992,-4.593 2.987,-6.893 l 0.892,-2.062 0.231,0.018 c 0.498,0.037 0.995,0.073 1.492,0.108 0.416,-1.017 0.833,-2.032 1.25,-3.043 -1.939,-0.19 -3.899,-0.413 -5.835,-0.664 -0.529,1.065 -1.059,2.135 -1.588,3.205 0.283,0.026 1.318,0.12 1.318,0.12 l -0.203,0.423 c -2.673,5.582 -5.541,11.533 -8.404,17.24 l -0.091,0.181 -1.646,-0.007 c -1.043,2.007 -2.097,4.008 -3.17,6.043 h 8.118 c 1.474,-1.853 2.948,-3.709 4.42,-5.564 2.832,-3.57 5.759,-7.26 8.634,-10.84 l 1.215,-1.598 -0.652,1.906 c -1.112,3.293 -2.228,6.591 -3.345,9.887 l -0.075,0.222 -1.962,-0.006 -2.177,5.993 h 8.528 c 0.511,-2 1.023,-3.99 1.535,-5.974 l -1.881,-0.004 0.93,-3.309 C 0.844,11.397 2.436,5.734 3.993,0.252 2.677,0.184 1.337,0.099 0,0 M 4.732,0.037 C 3.147,5.608 1.526,11.379 -0.042,16.961 l -0.725,2.578 1.862,0.003 -0.105,0.407 c -0.566,2.198 -1.134,4.405 -1.702,6.623 l -0.063,0.245 h -9.962 l 2.65,-7.296 1.951,0.005 c 0.895,-2.639 1.788,-5.28 2.679,-7.918 -2.488,3.109 -5.004,6.28 -7.443,9.354 l -0.036,0.044 c -1.505,1.897 -3.011,3.796 -4.518,5.688 l -0.097,0.123 h -9.513 l 0.252,-0.478 c 1.191,-2.257 2.355,-4.467 3.51,-6.693 l 0.007,-0.013 0.126,-0.164 1.6,0.008 c 2.778,-5.543 5.535,-11.26 8.106,-16.627 -0.433,-0.039 -1.329,-0.123 -1.329,-0.123 l 0.209,-0.425 c 0.635,-1.282 1.269,-2.564 1.903,-3.839 l 0.103,-0.208 0.231,0.03 c 2.147,0.281 4.327,0.528 6.481,0.733 l 0.438,0.042 -0.168,0.407 C -4.097,0.685 -4.6,1.907 -5.102,3.133 L -5.191,3.351 -5.426,3.334 C -5.925,3.3 -6.425,3.264 -6.924,3.227 l -0.708,1.636 c -0.72,1.665 -1.44,3.331 -2.162,4.993 2.492,-2.824 5.951,-6.708 9.425,-10.415 l 0.107,-0.114 0.155,0.012 c 1.522,0.114 3.05,0.209 4.542,0.284 l 0.409,0.02 z"
             style="fill:#fff200;fill-opacity:1;fill-rule:nonzero;stroke:none"
             id="path1663"
             inkscape:connector-curvature="0" /></g><g
           id="g1665"
           transform="translate(113.7773,142.1768)"><path
             d="m 0,0 c -2.208,0 -4.444,-0.04 -6.65,-0.118 -0.241,0.989 -0.482,1.98 -0.723,2.973 0.337,0.01 1.409,0.035 1.409,0.035 l -0.085,0.386 c -1.13,5.142 -2.308,10.53 -3.499,16.016 l -0.056,0.257 -1.791,-0.003 -0.097,0.403 c -0.454,1.896 -0.909,3.797 -1.365,5.708 H 4.935 C 5.017,22.276 5.097,18.928 5.174,15.604 3.835,15.606 2.495,15.608 1.156,15.608 l -0.339,3.948 -5.202,-0.002 0.947,-6.599 0.283,10e-4 c 1.086,0.002 2.172,0.003 3.258,0.003 L 1.511,12.958 1.829,8.719 C 1.245,8.72 0.661,8.721 0.077,8.721 c -0.843,0 -1.686,-0.002 -2.529,-0.006 l -0.375,-10e-4 0.835,-5.769 0.284,0.002 c 0.572,0.004 1.145,0.005 1.718,0.005 0.626,0 1.251,-0.002 1.877,-0.006 L 2.244,2.944 2.002,5.762 C 3.124,5.756 4.265,5.746 5.4,5.731 L 5.53,-0.081 C 3.691,-0.027 1.833,0 0,0 M 6.038,6.375 5.724,6.379 C 4.35,6.397 2.978,6.41 1.648,6.415 L 1.291,6.416 1.533,3.6 C 1.025,3.603 0.518,3.604 0.01,3.604 -0.47,3.604 -0.949,3.603 -1.428,3.6 l -0.646,4.465 c 0.717,0.003 1.433,0.004 2.15,0.004 0.701,0 1.403,-0.001 2.104,-0.003 L 2.531,8.064 2.115,13.61 0.104,13.611 c -0.993,0 -1.985,-0.001 -2.978,-0.003 -0.099,0.689 -0.538,3.747 -0.759,5.295 1.283,0.001 2.568,0.001 3.852,0.001 l 0.339,-3.947 h 0.299 c 1.549,0 3.1,-0.002 4.649,-0.006 L 5.841,14.95 5.833,15.284 C 5.751,18.823 5.666,22.389 5.578,25.99 L 5.57,26.309 h -19.252 l 0.096,-0.402 c 0.485,-2.04 0.972,-4.07 1.46,-6.107 l 0.217,-0.907 1.779,0.003 C -8.986,13.637 -7.857,8.468 -6.771,3.523 -7.112,3.515 -8.197,3.485 -8.197,3.485 l 1.04,-4.274 0.265,0.01 c 2.282,0.085 4.601,0.128 6.892,0.128 1.941,0 3.911,-0.032 5.853,-0.092 l 0.344,-0.011 z"
             style="fill:#fff200;fill-opacity:1;fill-rule:nonzero;stroke:none"
             id="path1667"
             inkscape:connector-curvature="0" /></g><g
           id="g1669"
           transform="translate(149.7168,161.7383)"><path
             d="m 0,0 -1.532,0.008 -0.09,-0.183 C -4.724,-6.48 -7.888,-13.221 -10.947,-19.74 l -0.651,-1.388 c -1.508,0.193 -3.02,0.369 -4.502,0.524 l 0.034,7.082 c 0.005,0.292 0.01,0.632 0.015,1.016 0.004,0.372 0.018,0.767 0.041,1.174 0.024,0.412 0.044,0.814 0.065,1.209 0.018,0.396 0.038,0.746 0.057,1.049 l 0.021,0.337 -0.443,0.011 -0.248,0.004 -0.069,-0.238 c -0.082,-0.279 -0.18,-0.623 -0.292,-1.033 -0.11,-0.406 -0.229,-0.818 -0.354,-1.222 -0.127,-0.412 -0.248,-0.802 -0.367,-1.169 -0.114,-0.36 -0.215,-0.661 -0.303,-0.904 -0.798,-2.314 -1.597,-4.623 -2.395,-6.919 -1.465,0.121 -2.941,0.226 -4.4,0.312 -0.682,5.545 -1.375,11.085 -2.046,16.447 l -0.443,3.531 -1.55,0.001 c -0.011,1.994 -0.024,3.997 -0.037,6.011 h 9.443 C -19.594,4.08 -19.817,2.074 -20.042,0.071 l -1.683,0.003 0.006,-0.331 c 0.032,-2.114 0.064,-4.224 0.094,-6.339 0.022,-0.502 0.036,-1.115 0.043,-1.832 0.008,-0.728 0.011,-1.447 0.009,-2.157 -0.002,-0.698 -0.008,-1.336 -0.016,-1.918 -0.009,-0.588 -0.011,-0.991 -0.006,-1.23 l 0.007,-0.304 0.426,-0.021 0.279,-0.009 0.052,0.275 c 0.04,0.209 0.135,0.617 0.282,1.212 0.153,0.613 0.335,1.331 0.549,2.162 0.221,0.85 0.461,1.774 0.722,2.773 0.269,1.028 0.54,2.043 0.813,3.045 0.97,3.561 1.938,7.117 2.902,10.695 h 5.78 L -10.184,1.92 c -0.273,-2.854 -0.548,-5.719 -0.825,-8.637 -0.054,-0.661 -0.128,-1.345 -0.221,-2.038 -0.089,-0.669 -0.186,-1.35 -0.29,-2.025 -0.099,-0.643 -0.194,-1.252 -0.286,-1.829 -0.09,-0.567 -0.173,-1.07 -0.247,-1.508 l -0.06,-0.357 0.741,-0.047 0.072,0.253 c 0.109,0.383 0.264,0.87 0.474,1.487 0.21,0.617 0.44,1.272 0.683,1.945 0.25,0.691 0.498,1.368 0.744,2.03 0.238,0.642 0.456,1.199 0.645,1.652 0.886,2.195 1.807,4.459 2.738,6.733 l 0.183,0.447 -1.623,0.007 c 0.382,1.476 1.571,6.062 1.571,6.062 H 2.183 C 1.455,4.075 0.729,2.052 0,0 M -6.39,6.747 -7.08,4.084 C -7.45,2.656 -7.82,1.227 -8.194,-0.223 l -0.069,-0.392 1.461,-0.007 c -0.869,-2.123 -1.727,-4.235 -2.552,-6.279 -0.194,-0.462 -0.415,-1.027 -0.657,-1.679 -0.245,-0.663 -0.494,-1.342 -0.745,-2.034 -0.047,-0.131 -0.094,-0.261 -0.14,-0.389 0.007,0.041 0.013,0.082 0.02,0.124 0.105,0.682 0.203,1.367 0.291,2.037 0.095,0.704 0.171,1.399 0.225,2.064 0.276,2.917 0.551,5.782 0.826,8.636 l 0.469,4.889 h -6.997 l -0.065,-0.241 c -0.986,-3.659 -1.976,-7.294 -2.967,-10.934 -0.273,-1.005 -0.545,-2.022 -0.814,-3.051 -0.262,-1 -0.502,-1.925 -0.723,-2.777 -0.105,-0.41 -0.204,-0.793 -0.295,-1.15 0.002,0.263 0.004,0.536 0.004,0.819 0.002,0.713 -10e-4,1.435 -0.009,2.165 -0.006,0.726 -0.02,1.345 -0.042,1.835 -0.029,2.005 -0.058,4.005 -0.089,6.008 l 1.603,-0.003 0.032,0.29 c 0.249,2.22 0.497,4.443 0.744,6.677 l 0.039,0.362 h -10.827 l 0.002,-0.328 c 0.016,-2.233 0.03,-4.453 0.042,-6.68 l 0.036,-0.305 1.589,-0.002 0.381,-3.04 c 0.679,-5.422 1.381,-11.029 2.069,-16.636 l 0.034,-0.27 0.271,-0.015 c 1.626,-0.095 3.277,-0.212 4.906,-0.348 l 0.252,-0.021 0.083,0.239 c 0.827,2.374 1.653,4.764 2.475,7.149 0.091,0.249 0.194,0.558 0.312,0.928 0.113,0.351 0.228,0.721 0.349,1.112 -0.018,-0.356 -0.029,-0.701 -0.033,-1.028 -0.004,-0.382 -0.009,-0.72 -0.016,-1.021 l -0.035,-7.672 0.293,-0.031 c 1.645,-0.169 3.331,-0.365 5.015,-0.583 l 0.236,-0.03 0.866,1.846 c 3.025,6.444 6.151,13.105 9.217,19.343 l 1.587,-0.008 0.077,0.218 c 0.806,2.273 1.61,4.511 2.416,6.747 L 3.11,6.747 Z"
             style="fill:#fff200;fill-opacity:1;fill-rule:nonzero;stroke:none"
             id="path1671"
             inkscape:connector-curvature="0" /></g></g></g></g></svg>